<!-- Generated by IcoMoon.io -->
<svg version="1.1" xmlns="http://www.w3.org/2000/svg" width="16" height="16" viewBox="0 0 16 16">
<title>icon-search</title>
<path d="M14.724 14.727c-0.343 0.341-0.9 0.341-1.244 0l-2.699-2.698c-1.019 0.76-2.28 1.214-3.65 1.214-3.376 0-6.113-2.733-6.113-6.113s2.737-6.113 6.113-6.113c3.376 0 6.113 2.733 6.113 6.113 0 1.371-0.457 2.629-1.218 3.65l2.699 2.698c0.344 0.341 0.344 0.899 0 1.249zM7.13 2.764c-2.411 0-4.366 1.956-4.366 4.366s1.955 4.366 4.366 4.366c2.411 0 4.366-1.956 4.366-4.366s-1.955-4.366-4.366-4.366z"></path>
</svg>
