<!-- Generated by IcoMoon.io -->
<svg version="1.1" xmlns="http://www.w3.org/2000/svg" width="16" height="16" viewBox="0 0 16 16">
<title>icon-upload</title>
<path d="M9.032 11.302h-2.064c-0.343 0-0.619-0.276-0.619-0.619v-4.335h-2.263c-0.459 0-0.689-0.555-0.364-0.88l3.925-3.928c0.194-0.194 0.511-0.194 0.705 0l3.928 3.928c0.325 0.325 0.095 0.88-0.364 0.88h-2.263v4.335c0 0.343-0.276 0.619-0.619 0.619zM14.606 11.096v2.89c0 0.343-0.276 0.619-0.619 0.619h-11.974c-0.343 0-0.619-0.276-0.619-0.619v-2.89c0-0.343 0.276-0.619 0.619-0.619h3.51v0.206c0 0.797 0.648 1.445 1.445 1.445h2.064c0.797 0 1.445-0.648 1.445-1.445v-0.206h3.51c0.343 0 0.619 0.276 0.619 0.619zM11.406 13.367c0-0.284-0.232-0.516-0.516-0.516s-0.516 0.232-0.516 0.516c0 0.284 0.232 0.516 0.516 0.516s0.516-0.232 0.516-0.516zM13.058 13.367c0-0.284-0.232-0.516-0.516-0.516s-0.516 0.232-0.516 0.516c0 0.284 0.232 0.516 0.516 0.516s0.516-0.232 0.516-0.516z"></path>
</svg>
