<!-- Generated by IcoMoon.io -->
<svg version="1.1" xmlns="http://www.w3.org/2000/svg" width="16" height="16" viewBox="0 0 16 16">
<title>icon-help2</title>
<path d="M15.586 7.944c0 4.218-3.419 7.636-7.636 7.636s-7.636-3.418-7.636-7.636c0-4.216 3.419-7.636 7.636-7.636s7.636 3.42 7.636 7.636zM8.155 2.833c-1.678 0-2.748 0.707-3.589 1.963-0.109 0.163-0.072 0.382 0.084 0.501l1.068 0.81c0.16 0.122 0.389 0.093 0.513-0.065 0.55-0.698 0.927-1.102 1.764-1.102 0.629 0 1.407 0.405 1.407 1.015 0 0.461-0.381 0.698-1.002 1.046-0.724 0.406-1.683 0.911-1.683 2.176v0.123c0 0.204 0.165 0.37 0.37 0.37h1.724c0.204 0 0.37-0.165 0.37-0.37v-0.041c0-0.876 2.561-0.913 2.561-3.284 0-1.786-1.853-3.141-3.588-3.141zM7.95 10.469c-0.781 0-1.416 0.635-1.416 1.416s0.635 1.416 1.416 1.416 1.416-0.635 1.416-1.416c0-0.781-0.635-1.416-1.416-1.416z"></path>
</svg>
