<!-- Generated by IcoMoon.io -->
<svg version="1.1" xmlns="http://www.w3.org/2000/svg" width="16" height="16" viewBox="0 0 16 16">
<title>icon-dashboard</title>
<path d="M5.035 2.44v2.224c0 0.368-0.299 0.667-0.667 0.667h-2.817c-0.368 0-0.667-0.299-0.667-0.667v-2.224c0-0.368 0.299-0.667 0.667-0.667h2.817c0.368 0 0.667 0.299 0.667 0.667zM10.076 9.112v-2.224c0-0.368-0.299-0.667-0.667-0.667h-2.817c-0.368 0-0.667 0.299-0.667 0.667v2.224c0 0.368 0.299 0.667 0.667 0.667h2.817c0.368 0 0.667-0.299 0.667-0.667zM10.965 2.44v2.224c0 0.368 0.299 0.667 0.667 0.667h2.817c0.368 0 0.667-0.299 0.667-0.667v-2.224c0-0.368-0.299-0.667-0.667-0.667h-2.817c-0.368 0-0.667 0.299-0.667 0.667zM10.076 4.664v-2.224c0-0.368-0.299-0.667-0.667-0.667h-2.817c-0.368 0-0.667 0.299-0.667 0.667v2.224c0 0.368 0.299 0.667 0.667 0.667h2.817c0.368 0 0.667-0.299 0.667-0.667zM4.368 6.221h-2.817c-0.368 0-0.667 0.299-0.667 0.667v2.224c0 0.368 0.299 0.667 0.667 0.667h2.817c0.368 0 0.667-0.299 0.667-0.667v-2.224c0-0.368-0.299-0.667-0.667-0.667zM0.884 11.336v2.224c0 0.368 0.299 0.667 0.667 0.667h2.817c0.368 0 0.667-0.299 0.667-0.667v-2.224c0-0.368-0.299-0.667-0.667-0.667h-2.817c-0.368 0-0.667 0.299-0.667 0.667zM11.632 9.779h2.817c0.368 0 0.667-0.299 0.667-0.667v-2.224c0-0.368-0.299-0.667-0.667-0.667h-2.817c-0.368 0-0.667 0.299-0.667 0.667v2.224c0 0.368 0.299 0.667 0.667 0.667zM11.632 14.227h2.817c0.368 0 0.667-0.299 0.667-0.667v-2.224c0-0.368-0.299-0.667-0.667-0.667h-2.817c-0.368 0-0.667 0.299-0.667 0.667v2.224c0 0.368 0.299 0.667 0.667 0.667zM5.924 11.336v2.224c0 0.368 0.299 0.667 0.667 0.667h2.817c0.368 0 0.667-0.299 0.667-0.667v-2.224c0-0.368-0.299-0.667-0.667-0.667h-2.817c-0.368 0-0.667 0.299-0.667 0.667z"></path>
</svg>
