<!-- Generated by IcoMoon.io -->
<svg version="1.1" xmlns="http://www.w3.org/2000/svg" width="16" height="16" viewBox="0 0 16 16">
<title>icon-contract</title>
<path d="M8.943 4.465v-4.007h-5.892c-0.392 0-0.707 0.315-0.707 0.707v13.67c0 0.392 0.315 0.707 0.707 0.707h9.899c0.392 0 0.707-0.315 0.707-0.707v-9.663h-4.007c-0.389 0-0.707-0.318-0.707-0.707zM4.229 2.579c0-0.13 0.105-0.236 0.236-0.236h2.357c0.13 0 0.236 0.105 0.236 0.236v0.471c0 0.13-0.105 0.236-0.236 0.236h-2.357c-0.13 0-0.236-0.105-0.236-0.236v-0.471zM4.229 4.465c0-0.13 0.105-0.236 0.236-0.236h2.357c0.13 0 0.236 0.105 0.236 0.236v0.471c0 0.13-0.105 0.236-0.236 0.236h-2.357c-0.13 0-0.236-0.105-0.236-0.236v-0.471zM9.909 11.771h1.39c0.26 0 0.471 0.211 0.471 0.471s-0.211 0.471-0.471 0.471h-1.39c-0.485 0-0.921-0.269-1.138-0.703-0.087-0.174-0.238-0.192-0.3-0.192s-0.213 0.017-0.295 0.182l-0.226 0.452c-0.080 0.159-0.243 0.261-0.422 0.26-0.011 0-0.022-0.001-0.034-0.001-0.19-0.013-0.354-0.14-0.413-0.321l-0.496-1.487-0.313 0.939c-0.174 0.52-0.659 0.87-1.208 0.87h-0.365c-0.26 0-0.471-0.211-0.471-0.471s0.211-0.471 0.471-0.471h0.365c0.142 0 0.268-0.091 0.313-0.226l0.536-1.61c0.097-0.289 0.367-0.483 0.671-0.483s0.574 0.194 0.671 0.483l0.409 1.227c0.582-0.477 1.592-0.286 1.944 0.417 0.060 0.12 0.176 0.191 0.299 0.191zM13.45 3.551l-2.884-2.887c-0.133-0.133-0.312-0.206-0.501-0.206h-0.18v3.771h3.771v-0.18c0-0.186-0.074-0.365-0.206-0.498z"></path>
</svg>
