<!-- Generated by IcoMoon.io -->
<svg version="1.1" xmlns="http://www.w3.org/2000/svg" width="16" height="16" viewBox="0 0 16 16">
<title>icon-logout</title>
<path d="M15.135 8.495l-4.892 4.892c-0.437 0.437-1.194 0.131-1.194-0.495v-2.796h-3.96c-0.387 0-0.699-0.312-0.699-0.699v-2.796c0-0.387 0.312-0.699 0.699-0.699h3.96v-2.796c0-0.623 0.754-0.932 1.194-0.495l4.892 4.892c0.271 0.274 0.271 0.716 0 0.99zM6.253 13.242v-1.165c0-0.192-0.157-0.349-0.349-0.349h-2.446c-0.515 0-0.932-0.416-0.932-0.932v-5.591c0-0.515 0.416-0.932 0.932-0.932h2.446c0.192 0 0.349-0.157 0.349-0.349v-1.165c0-0.192-0.157-0.349-0.349-0.349h-2.446c-1.544 0-2.796 1.252-2.796 2.796v5.591c0 1.543 1.252 2.796 2.796 2.796h2.446c0.192 0 0.349-0.157 0.349-0.349z"></path>
</svg>
