<!-- Generated by IcoMoon.io -->
<svg version="1.1" xmlns="http://www.w3.org/2000/svg" width="16" height="16" viewBox="0 0 16 16">
<title>icon-calendar</title>
<path d="M1.754 6.114h12.492c0.194 0 0.354 0.159 0.354 0.354v7.66c0 0.781-0.633 1.414-1.414 1.414h-10.371c-0.781 0-1.414-0.633-1.414-1.414v-7.66c0-0.194 0.159-0.354 0.354-0.354zM14.599 4.818v-1.061c0-0.781-0.633-1.414-1.414-1.414h-1.414v-1.532c0-0.194-0.159-0.354-0.354-0.354h-1.178c-0.194 0-0.354 0.159-0.354 0.354v1.532h-3.771v-1.532c0-0.194-0.159-0.354-0.354-0.354h-1.178c-0.194 0-0.354 0.159-0.354 0.354v1.532h-1.414c-0.781 0-1.414 0.633-1.414 1.414v1.061c0 0.194 0.159 0.354 0.354 0.354h12.492c0.194 0 0.354-0.159 0.354-0.354z"></path>
</svg>
