<!-- Generated by IcoMoon.io -->
<svg version="1.1" xmlns="http://www.w3.org/2000/svg" width="16" height="16" viewBox="0 0 16 16">
<title>icon-handshake</title>
<path d="M10.738 3.415h-2.050c-0.191 0-0.375 0.072-0.516 0.2l-2.346 2.148c-0.002 0.002-0.005 0.007-0.007 0.009-0.396 0.372-0.389 0.967-0.050 1.337 0.303 0.332 0.94 0.42 1.339 0.064 0.002-0.002 0.007-0.002 0.009-0.005l1.907-1.747c0.155-0.141 0.399-0.131 0.539 0.024 0.143 0.155 0.131 0.396-0.024 0.539l-0.623 0.57 3.475 2.821c0.069 0.057 0.131 0.119 0.189 0.184v-4.619l-1.303-1.303c-0.141-0.143-0.337-0.224-0.539-0.224zM13.347 4.948v5.344c0 0.423 0.341 0.764 0.764 0.764h1.528v-6.108h-2.291zM14.492 10.292c-0.21 0-0.382-0.172-0.382-0.382s0.172-0.382 0.382-0.382c0.21 0 0.382 0.172 0.382 0.382s-0.172 0.382-0.382 0.382zM0.362 11.054h1.528c0.423 0 0.764-0.341 0.764-0.764v-5.342h-2.291v6.106zM1.508 9.528c0.21 0 0.382 0.172 0.382 0.382s-0.172 0.382-0.382 0.382c-0.21 0-0.382-0.172-0.382-0.382 0-0.212 0.172-0.382 0.382-0.382zM11.912 9.972l-3.564-2.893-0.716 0.656c-0.709 0.647-1.795 0.585-2.428-0.105-0.642-0.702-0.592-1.788 0.105-2.428l1.952-1.788h-2c-0.203 0-0.396 0.081-0.539 0.224l-1.306 1.303v5.344h0.437l2.16 1.955c0.654 0.532 1.616 0.432 2.148-0.222l0.005-0.005 0.427 0.37c0.38 0.31 0.94 0.251 1.248-0.129l0.75-0.921 0.129 0.105c0.327 0.265 0.809 0.217 1.074-0.112l0.227-0.279c0.267-0.329 0.217-0.809-0.11-1.076z"></path>
</svg>
