<!-- Generated by IcoMoon.io -->
<svg version="1.1" xmlns="http://www.w3.org/2000/svg" width="16" height="16" viewBox="0 0 16 16">
<title>icon-bed</title>
<path d="M4.569 8c1.051 0 1.906-0.855 1.906-1.906s-0.855-1.906-1.906-1.906c-1.051 0-1.906 0.855-1.906 1.906s0.855 1.906 1.906 1.906zM12.956 4.95h-5.337c-0.211 0-0.381 0.171-0.381 0.381v3.431h-5.337v-4.956c0-0.211-0.171-0.381-0.381-0.381h-0.762c-0.211 0-0.381 0.171-0.381 0.381v8.387c0 0.211 0.171 0.381 0.381 0.381h0.762c0.211 0 0.381-0.171 0.381-0.381v-1.144h12.2v1.144c0 0.211 0.171 0.381 0.381 0.381h0.762c0.211 0 0.381-0.171 0.381-0.381v-4.575c0-1.474-1.195-2.669-2.669-2.669z"></path>
</svg>
