<!-- Generated by IcoMoon.io -->
<svg version="1.1" xmlns="http://www.w3.org/2000/svg" width="16" height="16" viewBox="0 0 16 16">
<title>icon-info</title>
<path d="M8 0.776c-3.989 0-7.224 3.236-7.224 7.224 0 3.991 3.235 7.224 7.224 7.224s7.224-3.233 7.224-7.224c0-3.988-3.235-7.224-7.224-7.224zM8 3.98c0.676 0 1.223 0.548 1.223 1.223s-0.548 1.223-1.223 1.223c-0.676 0-1.223-0.548-1.223-1.223s0.548-1.223 1.223-1.223zM9.631 11.379c0 0.193-0.157 0.35-0.35 0.35h-2.563c-0.193 0-0.35-0.157-0.35-0.35v-0.699c0-0.193 0.157-0.35 0.35-0.35h0.35v-1.864h-0.35c-0.193 0-0.35-0.157-0.35-0.35v-0.699c0-0.193 0.157-0.35 0.35-0.35h1.864c0.193 0 0.35 0.157 0.35 0.35v2.913h0.35c0.193 0 0.35 0.157 0.35 0.35v0.699z"></path>
</svg>
