<!-- Generated by IcoMoon.io -->
<svg version="1.1" xmlns="http://www.w3.org/2000/svg" width="16" height="16" viewBox="0 0 16 16">
<title>icon-sav</title>
<path d="M14.589 4.043l-2.633-2.633c-0.282-0.282-0.666-0.441-1.065-0.441h-8.415c-0.832 0-1.507 0.674-1.507 1.507v11.048c0 0.832 0.674 1.507 1.507 1.507h11.048c0.832 0 1.507-0.674 1.507-1.507v-8.415c0-0.399-0.159-0.783-0.441-1.065zM8 13.022c-1.109 0-2.009-0.899-2.009-2.009s0.899-2.009 2.009-2.009c1.109 0 2.009 0.899 2.009 2.009s-0.899 2.009-2.009 2.009zM11.013 3.464v3.155c0 0.208-0.169 0.377-0.377 0.377h-7.282c-0.208 0-0.377-0.169-0.377-0.377v-3.264c0-0.208 0.169-0.377 0.377-0.377h7.172c0.1 0 0.196 0.040 0.266 0.11l0.109 0.109c0.071 0.071 0.11 0.167 0.11 0.266z"></path>
</svg>
