<!-- Generated by IcoMoon.io -->
<svg version="1.1" xmlns="http://www.w3.org/2000/svg" width="16" height="16" viewBox="0 0 16 16">
<title>icon-alert</title>
<path d="M8 15.599c1.048 0 1.899-0.85 1.899-1.9h-3.798c0 1.049 0.85 1.9 1.899 1.9zM14.393 11.155c-0.573-0.616-1.647-1.543-1.647-4.58 0-2.306-1.617-4.153-3.798-4.606v-0.619c0-0.524-0.425-0.95-0.949-0.95s-0.949 0.425-0.949 0.95v0.619c-2.181 0.453-3.798 2.299-3.798 4.606 0 3.037-1.073 3.964-1.647 4.58-0.178 0.191-0.257 0.42-0.256 0.644 0.003 0.487 0.385 0.95 0.953 0.95h11.392c0.568 0 0.95-0.463 0.953-0.95 0.001-0.224-0.077-0.453-0.256-0.644z"></path>
</svg>
