<!-- Generated by IcoMoon.io -->
<svg version="1.1" xmlns="http://www.w3.org/2000/svg" width="16" height="16" viewBox="0 0 16 16">
<title>icon-twitter</title>
<path d="M13.922 4.96c0.006 0.131 0.007 0.262 0.007 0.395 0 4.041-3.073 8.702-8.693 8.702-1.726 0-3.331-0.506-4.683-1.376 0.239 0.030 0.482 0.043 0.728 0.043 1.432 0 2.749-0.487 3.795-1.31-1.337-0.021-2.466-0.907-2.856-2.122 0.187 0.036 0.38 0.055 0.576 0.055 0.277 0 0.547-0.038 0.805-0.108-1.398-0.281-2.452-1.516-2.452-2.998v-0.038c0.413 0.228 0.885 0.367 1.385 0.382-0.821-0.549-1.36-1.485-1.36-2.545 0-0.562 0.15-1.086 0.414-1.539 1.506 1.851 3.759 3.067 6.298 3.196-0.052-0.224-0.079-0.459-0.079-0.699 0-1.689 1.367-3.058 3.055-3.058 0.879 0 1.673 0.372 2.23 0.967 0.697-0.138 1.351-0.392 1.942-0.743-0.23 0.714-0.713 1.313-1.345 1.691 0.618-0.072 1.208-0.237 1.755-0.481-0.41 0.614-0.927 1.15-1.524 1.583z"></path>
</svg>
