<!-- Generated by IcoMoon.io -->
<svg version="1.1" xmlns="http://www.w3.org/2000/svg" width="16" height="16" viewBox="0 0 16 16">
<title>icon-contacts</title>
<path d="M4.956 8c1.472 0 2.663-1.191 2.663-2.663s-1.191-2.663-2.663-2.663c-1.472 0-2.663 1.191-2.663 2.663s1.191 2.663 2.663 2.663zM6.782 8.761h-0.197c-0.495 0.238-1.044 0.38-1.629 0.38s-1.132-0.143-1.629-0.38h-0.197c-1.512 0-2.74 1.227-2.74 2.74v0.685c0 0.63 0.511 1.141 1.141 1.141h6.849c0.63 0 1.141-0.511 1.141-1.141v-0.685c0-1.512-1.227-2.74-2.74-2.74zM11.805 8c1.26 0 2.283-1.023 2.283-2.283s-1.023-2.283-2.283-2.283c-1.26 0-2.283 1.023-2.283 2.283s1.023 2.283 2.283 2.283zM12.947 8.761h-0.090c-0.331 0.114-0.68 0.19-1.051 0.19s-0.721-0.076-1.051-0.19h-0.090c-0.485 0-0.932 0.14-1.325 0.366 0.58 0.625 0.944 1.455 0.944 2.373v0.913c0 0.052-0.012 0.102-0.014 0.152h4.2c0.63 0 1.141-0.511 1.141-1.141 0-1.472-1.191-2.663-2.663-2.663z"></path>
</svg>
