<!-- Generated by IcoMoon.io -->
<svg version="1.1" xmlns="http://www.w3.org/2000/svg" width="16" height="16" viewBox="0 0 16 16">
<title>icon-chart</title>
<path d="M15.149 8.894h-6.632l4.417 4.417c0.169 0.169 0.447 0.183 0.62 0.019 1.082-1.019 1.826-2.393 2.044-3.937 0.037-0.264-0.182-0.499-0.449-0.499zM14.707 7.083c-0.23-3.339-2.898-6.007-6.237-6.237-0.255-0.018-0.47 0.197-0.47 0.453v6.254h6.254c0.255 0 0.47-0.215 0.452-0.47zM6.659 8.894v-6.632c0-0.267-0.234-0.486-0.499-0.449-3.331 0.471-5.876 3.38-5.758 6.868 0.122 3.581 3.205 6.518 6.788 6.473 1.409-0.018 2.71-0.472 3.78-1.231 0.221-0.157 0.235-0.482 0.044-0.673l-4.356-4.356z"></path>
</svg>
