<!-- Generated by IcoMoon.io -->
<svg version="1.1" xmlns="http://www.w3.org/2000/svg" width="16" height="16" viewBox="0 0 16 16">
<title>icon-setting</title>
<path d="M14.974 11.72h-9.764v-0.465c0-0.256-0.209-0.465-0.465-0.465h-0.93c-0.256 0-0.465 0.209-0.465 0.465v0.465h-2.325c-0.256 0-0.465 0.209-0.465 0.465v0.93c0 0.256 0.209 0.465 0.465 0.465h2.325v0.465c0 0.256 0.209 0.465 0.465 0.465h0.93c0.256 0 0.465-0.209 0.465-0.465v-0.465h9.764c0.256 0 0.465-0.209 0.465-0.465v-0.93c0-0.256-0.209-0.465-0.465-0.465zM14.974 7.070h-2.325v-0.465c0-0.256-0.209-0.465-0.465-0.465h-0.93c-0.256 0-0.465 0.209-0.465 0.465v0.465h-9.764c-0.256 0-0.465 0.209-0.465 0.465v0.93c0 0.256 0.209 0.465 0.465 0.465h9.764v0.465c0 0.256 0.209 0.465 0.465 0.465h0.93c0.256 0 0.465-0.209 0.465-0.465v-0.465h2.325c0.256 0 0.465-0.209 0.465-0.465v-0.93c0-0.256-0.209-0.465-0.465-0.465zM14.974 2.421h-6.044v-0.465c0-0.256-0.209-0.465-0.465-0.465h-0.93c-0.256 0-0.465 0.209-0.465 0.465v0.465h-6.044c-0.256 0-0.465 0.209-0.465 0.465v0.93c0 0.256 0.209 0.465 0.465 0.465h6.044v0.465c0 0.256 0.209 0.465 0.465 0.465h0.93c0.256 0 0.465-0.209 0.465-0.465v-0.465h6.044c0.256 0 0.465-0.209 0.465-0.465v-0.93c0-0.256-0.209-0.465-0.465-0.465z"></path>
</svg>
