<!-- Generated by IcoMoon.io -->
<svg version="1.1" xmlns="http://www.w3.org/2000/svg" width="16" height="16" viewBox="0 0 16 16">
<title>icon-home-checked</title>
<path d="M6.786 10.355h1.572c0.214 0 0.396 0.178 0.396 0.393v2.348c0 0.001 0 0.001 0 0.001 0 0.216 0.176 0.393 0.39 0.393l2.753 0.008c0.214 0 0.39-0.178 0.39-0.393v-2.602c-2.61-0.044-4.714-2.175-4.714-4.795 0-0.141 0.005-0.281 0.022-0.42-0.071-0.004-0.148 0.018-0.209 0.065l-4.522 3.728v4.023c0 0.215 0.176 0.393 0.39 0.393l2.753-0.007c0.214-0.001 0.39-0.178 0.39-0.393v-2.349c0-0.215 0.176-0.393 0.39-0.393zM7.769 4.353c0.154-0.527 0.396-1.017 0.714-1.451l-0.165-0.132c-0.429-0.357-1.061-0.357-1.495 0l-6.215 5.118c-0.066 0.056-0.104 0.14-0.104 0.227 0 0.069 0.022 0.135 0.066 0.188l0.626 0.761c0.055 0.068 0.137 0.108 0.225 0.108 0.071 0 0.137-0.024 0.187-0.068l5.775-4.756c0.11-0.088 0.269-0.088 0.379 0l0.005 0.005zM12.286 8.917c-1.769 0-3.209-1.436-3.209-3.207s1.44-3.207 3.209-3.207c1.775 0 3.209 1.436 3.209 3.207s-1.434 3.207-3.209 3.207zM13.973 4.481c-0.198-0.194-0.516-0.194-0.714 0l-1.429 1.405-0.516-0.489c-0.198-0.195-0.516-0.195-0.714 0s-0.198 0.509 0 0.703l0.874 0.841c0.198 0.194 0.516 0.194 0.714 0l1.786-1.757c0.198-0.194 0.198-0.509 0-0.703z"></path>
</svg>
