<!-- Generated by IcoMoon.io -->
<svg version="1.1" xmlns="http://www.w3.org/2000/svg" width="16" height="16" viewBox="0 0 16 16">
<title>icon-home</title>
<path d="M7.798 5.153l-4.871 4.012v4.33c0 0.232 0.191 0.423 0.423 0.423l2.96-0.008c0.231-0.001 0.421-0.192 0.421-0.423v-2.529c0-0.232 0.191-0.423 0.423-0.423h1.691c0.232 0 0.423 0.191 0.423 0.423v2.527c0 0 0 0.001 0 0.001 0 0.232 0.191 0.423 0.423 0.423 0 0 0 0 0 0l2.959 0.008c0.232 0 0.423-0.191 0.423-0.423v-4.333l-4.87-4.009c-0.118-0.095-0.287-0.095-0.404 0zM15.492 7.88l-2.208-1.82v-3.659c0-0.174-0.143-0.317-0.317-0.317h-1.479c-0.174 0-0.317 0.143-0.317 0.317v1.918l-2.365-1.946c-0.466-0.384-1.145-0.384-1.612 0l-6.687 5.507c-0.073 0.060-0.115 0.15-0.115 0.244 0 0.074 0.026 0.145 0.073 0.202l0.674 0.819c0.060 0.073 0.15 0.116 0.245 0.116 0.074 0 0.145-0.026 0.202-0.073l6.214-5.118c0.118-0.095 0.287-0.095 0.404 0l6.214 5.118c0.057 0.047 0.128 0.073 0.202 0.073 0.094 0 0.184-0.042 0.244-0.115l0.674-0.819c0.047-0.057 0.072-0.128 0.072-0.201 0-0.095-0.043-0.186-0.117-0.246z"></path>
</svg>
