<!-- Generated by IcoMoon.io -->
<svg version="1.1" xmlns="http://www.w3.org/2000/svg" width="16" height="16" viewBox="0 0 16 16">
<title>icon-more</title>
<path d="M8 12.219c0.836 0 1.512 0.677 1.512 1.512s-0.677 1.512-1.512 1.512c-0.836 0-1.512-0.677-1.512-1.512s0.677-1.512 1.512-1.512zM8 6.488c0.836 0 1.512 0.677 1.512 1.512s-0.677 1.512-1.512 1.512c-0.836 0-1.512-0.677-1.512-1.512s0.677-1.512 1.512-1.512zM8 0.757c0.836 0 1.512 0.677 1.512 1.512s-0.677 1.512-1.512 1.512c-0.836 0-1.512-0.677-1.512-1.512s0.677-1.512 1.512-1.512z"></path>
</svg>
