<!-- Generated by IcoMoon.io -->
<svg version="1.1" xmlns="http://www.w3.org/2000/svg" width="16" height="16" viewBox="0 0 16 16">
<title>icon-space</title>
<path d="M0.899 5.591v-3.931c0-0.422 0.339-0.761 0.761-0.761h3.931c0.209 0 0.38 0.171 0.38 0.38v1.268c0 0.209-0.171 0.38-0.38 0.38h-2.663v2.663c0 0.209-0.171 0.38-0.38 0.38h-1.268c-0.209 0-0.38-0.171-0.38-0.38zM10.029 1.279v1.268c0 0.209 0.171 0.38 0.38 0.38h2.663v2.663c0 0.209 0.171 0.38 0.38 0.38h1.268c0.209 0 0.38-0.171 0.38-0.38v-3.931c0-0.422-0.339-0.761-0.761-0.761h-3.931c-0.209 0-0.38 0.171-0.38 0.38zM14.721 10.029h-1.268c-0.209 0-0.38 0.171-0.38 0.38v2.663h-2.663c-0.209 0-0.38 0.171-0.38 0.38v1.268c0 0.209 0.171 0.38 0.38 0.38h3.931c0.422 0 0.761-0.339 0.761-0.761v-3.931c0-0.209-0.171-0.38-0.38-0.38zM5.971 14.721v-1.268c0-0.209-0.171-0.38-0.38-0.38h-2.663v-2.663c0-0.209-0.171-0.38-0.38-0.38h-1.268c-0.209 0-0.38 0.171-0.38 0.38v3.931c0 0.422 0.339 0.761 0.761 0.761h3.931c0.209 0 0.38-0.171 0.38-0.38z"></path>
</svg>
