<!-- Generated by IcoMoon.io -->
<svg version="1.1" xmlns="http://www.w3.org/2000/svg" width="16" height="16" viewBox="0 0 16 16">
<title>icon-help</title>
<path d="M8 0.469c-4.159 0-7.531 3.372-7.531 7.531s3.372 7.531 7.531 7.531c4.159 0 7.531-3.372 7.531-7.531s-3.372-7.531-7.531-7.531zM13.274 4.1l-1.925 1.925c-0.334-0.564-0.81-1.040-1.374-1.374l1.925-1.925c0.523 0.388 0.986 0.851 1.374 1.374zM8 10.915c-1.61 0-2.915-1.305-2.915-2.915s1.305-2.915 2.915-2.915c1.61 0 2.915 1.305 2.915 2.915s-1.305 2.915-2.915 2.915zM4.1 2.726l1.925 1.925c-0.564 0.334-1.040 0.81-1.374 1.374l-1.925-1.925c0.388-0.523 0.851-0.986 1.374-1.374zM2.726 11.9l1.925-1.925c0.334 0.564 0.81 1.040 1.374 1.374l-1.925 1.925c-0.523-0.388-0.986-0.851-1.374-1.374zM11.9 13.274l-1.925-1.925c0.564-0.334 1.040-0.81 1.374-1.374l1.925 1.925c-0.388 0.523-0.851 0.986-1.374 1.374z"></path>
</svg>
