<!-- Generated by IcoMoon.io -->
<svg version="1.1" xmlns="http://www.w3.org/2000/svg" width="16" height="16" viewBox="0 0 16 16">
<title>icon-user-plus</title>
<path d="M14.979 6.898h-1.469v-1.469c0-0.202-0.165-0.367-0.367-0.367h-0.735c-0.202 0-0.367 0.165-0.367 0.367v1.469h-1.469c-0.202 0-0.367 0.165-0.367 0.367v0.735c0 0.202 0.165 0.367 0.367 0.367h1.469v1.469c0 0.202 0.165 0.367 0.367 0.367h0.735c0.202 0 0.367-0.165 0.367-0.367v-1.469h1.469c0.202 0 0.367-0.165 0.367-0.367v-0.735c0-0.202-0.165-0.367-0.367-0.367zM5.796 8c1.623 0 2.938-1.315 2.938-2.938s-1.315-2.938-2.938-2.938c-1.623 0-2.938 1.315-2.938 2.938s1.315 2.938 2.938 2.938zM7.853 8.735h-0.383c-0.51 0.234-1.077 0.367-1.674 0.367s-1.162-0.133-1.674-0.367h-0.383c-1.703 0-3.085 1.382-3.085 3.085v0.955c0 0.608 0.494 1.102 1.102 1.102h8.081c0.608 0 1.102-0.494 1.102-1.102v-0.955c0-1.703-1.382-3.085-3.085-3.085z"></path>
</svg>
