<?xml version="1.0" encoding="UTF-8" standalone="no"?>
<!DOCTYPE svg PUBLIC "-//W3C//DTD SVG 1.1//EN" "http://www.w3.org/Graphics/SVG/1.1/DTD/svg11.dtd">
<svg width="100%" height="100%" viewBox="0 0 414 299" version="1.1" xmlns="http://www.w3.org/2000/svg" xmlns:xlink="http://www.w3.org/1999/xlink" xml:space="preserve" xmlns:serif="http://www.serif.com/" style="fill-rule:evenodd;clip-rule:evenodd;stroke-linejoin:round;stroke-miterlimit:1.41421;">
    <g transform="matrix(1,0,0,1,-13464,-4785)">
        <g transform="matrix(2.04929,0,0,5.47628,13778,4534.15)">
            <g id="Logo" transform="matrix(0.997563,0,0,0.221543,-290.05,12.3446)">
                <g id="Baseline" transform="matrix(0.398129,0,0,0.482494,-10408,-4554.78)">
                    <g transform="matrix(0.719231,0,0,1,7413.56,0)">
                        <path d="M26532.2,10217.2C26537.5,10217.2 26541.4,10218.3 26543.8,10220.3C26546.2,10222.3 26547.4,10225.5 26547.4,10229.7C26547.4,10233.9 26546.2,10237 26543.7,10239C26541.2,10241 26537.4,10242 26532.3,10242L26526.1,10242L26526.1,10252.2L26520.2,10252.2L26520.2,10217.2L26532.2,10217.2ZM26532.9,10236.6C26536.2,10236.6 26538.4,10236 26539.6,10234.7C26540.8,10233.5 26541.4,10231.6 26541.4,10229.2C26541.4,10226.8 26540.6,10225.1 26539.1,10224.1C26537.6,10223.1 26535.3,10222.6 26532.1,10222.6L26526.1,10222.6L26526.1,10236.6L26532.9,10236.6Z" style="fill:rgb(70,73,88);fill-rule:nonzero;"/>
                    </g>
                    <g transform="matrix(0.719231,0,0,1,7413.56,0)">
                        <path d="M26567.3,10230.9C26564.5,10230.9 26562.4,10231.8 26561,10233.6C26559.6,10235.4 26558.9,10237.8 26558.9,10240.8L26558.9,10252.2L26553.3,10252.2L26553.3,10225.6L26558.9,10225.6L26558.9,10231C26559.8,10229.3 26561.1,10227.9 26562.6,10226.9C26564.2,10225.8 26565.8,10225.2 26567.5,10225.2L26567.6,10230.9C26567.5,10230.9 26567.4,10230.9 26567.3,10230.9Z" style="fill:rgb(70,73,88);fill-rule:nonzero;"/>
                    </g>
                    <g transform="matrix(0.719231,0,0,1,7413.56,0)">
                        <path d="M26597.7,10241.4L26576.8,10241.4C26577,10243.3 26577.9,10244.8 26579.5,10246C26581.1,10247.2 26583,10247.8 26585.1,10247.8C26588.4,10247.8 26591,10246.8 26592.7,10244.6L26595.9,10248.1C26593,10251.1 26589.3,10252.6 26584.7,10252.6C26581,10252.6 26577.8,10251.4 26575.2,10248.9C26572.6,10246.4 26571.2,10243.1 26571.2,10238.9C26571.2,10234.7 26572.6,10231.4 26575.2,10228.9C26577.9,10226.4 26581.1,10225.2 26584.7,10225.2C26588.3,10225.2 26591.4,10226.3 26593.9,10228.5C26596.4,10230.7 26597.7,10233.7 26597.7,10237.5L26597.7,10241.4ZM26576.8,10237L26592.1,10237C26592.1,10234.7 26591.4,10233 26590,10231.8C26588.6,10230.6 26586.9,10230 26584.8,10230C26582.8,10230 26580.9,10230.6 26579.3,10231.9C26577.7,10233.1 26576.8,10234.8 26576.8,10237ZM26587.7,10222.1L26582.6,10222.1L26587.9,10214.9L26593.8,10217.3L26587.7,10222.1Z" style="fill:rgb(70,73,88);fill-rule:nonzero;"/>
                    </g>
                    <g transform="matrix(0.719231,0,0,1,7413.56,0)">
                        <path d="M26610.5,10223.4L26610.5,10225.6L26617.5,10225.6L26617.5,10230.1L26610.5,10230.1L26610.5,10252.2L26604.9,10252.2L26604.9,10230.1L26601.5,10230.1L26601.5,10225.6L26604.9,10225.6L26604.9,10223.6C26604.9,10220.8 26605.7,10218.5 26607.4,10216.9C26609.1,10215.2 26611.1,10214.4 26613.5,10214.4C26615.9,10214.4 26618.1,10215.3 26620,10217.1L26617.7,10221C26616.6,10219.8 26615.5,10219.2 26614.3,10219.2C26613.1,10219.2 26612.2,10219.6 26611.5,10220.4C26610.8,10221.1 26610.5,10222.1 26610.5,10223.4Z" style="fill:rgb(70,73,88);fill-rule:nonzero;"/>
                    </g>
                    <g transform="matrix(0.719231,0,0,1,7413.56,0)">
                        <path d="M26647.4,10241.4L26626.5,10241.4C26626.7,10243.3 26627.6,10244.8 26629.2,10246C26630.8,10247.2 26632.7,10247.8 26634.8,10247.8C26638.1,10247.8 26640.7,10246.8 26642.4,10244.6L26645.6,10248.1C26642.7,10251.1 26639,10252.6 26634.4,10252.6C26630.7,10252.6 26627.5,10251.4 26624.9,10248.9C26622.3,10246.4 26620.9,10243.1 26620.9,10238.9C26620.9,10234.7 26622.3,10231.4 26624.9,10228.9C26627.6,10226.4 26630.8,10225.2 26634.4,10225.2C26638,10225.2 26641.1,10226.3 26643.6,10228.5C26646.1,10230.7 26647.4,10233.7 26647.4,10237.5L26647.4,10241.4ZM26626.5,10237L26641.8,10237C26641.8,10234.7 26641.1,10233 26639.7,10231.8C26638.3,10230.6 26636.6,10230 26634.5,10230C26632.5,10230 26630.6,10230.6 26629,10231.9C26627.4,10233.1 26626.5,10234.8 26626.5,10237ZM26637.4,10222.1L26632.3,10222.1L26637.6,10214.9L26643.5,10217.3L26637.4,10222.1Z" style="fill:rgb(70,73,88);fill-rule:nonzero;"/>
                    </g>
                    <g transform="matrix(0.719231,0,0,1,7413.56,0)">
                        <path d="M26667.2,10230.9C26664.5,10230.9 26662.4,10231.8 26661,10233.6C26659.6,10235.4 26658.9,10237.8 26658.9,10240.8L26658.9,10252.2L26653.3,10252.2L26653.3,10225.6L26658.9,10225.6L26658.9,10231C26659.8,10229.3 26661,10227.9 26662.6,10226.9C26664.1,10225.8 26665.8,10225.2 26667.5,10225.2L26667.5,10230.9C26667.4,10230.9 26667.3,10230.9 26667.2,10230.9Z" style="fill:rgb(70,73,88);fill-rule:nonzero;"/>
                    </g>
                    <g transform="matrix(0.719231,0,0,1,7413.56,0)">
                        <path d="M26697.6,10241.4L26676.8,10241.4C26676.9,10243.3 26677.8,10244.8 26679.4,10246C26681.1,10247.2 26682.9,10247.8 26685,10247.8C26688.4,10247.8 26690.9,10246.8 26692.6,10244.6L26695.8,10248.1C26693,10251.1 26689.2,10252.6 26684.6,10252.6C26680.9,10252.6 26677.7,10251.4 26675.1,10248.9C26672.5,10246.4 26671.2,10243.1 26671.2,10238.9C26671.2,10234.7 26672.5,10231.4 26675.2,10228.9C26677.9,10226.4 26681,10225.2 26684.6,10225.2C26688.2,10225.2 26691.3,10226.3 26693.8,10228.5C26696.4,10230.7 26697.6,10233.7 26697.6,10237.5L26697.6,10241.4ZM26676.8,10237L26692,10237C26692,10234.7 26691.3,10233 26689.9,10231.8C26688.5,10230.6 26686.8,10230 26684.8,10230C26682.7,10230 26680.9,10230.6 26679.2,10231.9C26677.6,10233.1 26676.8,10234.8 26676.8,10237Z" style="fill:rgb(70,73,88);fill-rule:nonzero;"/>
                    </g>
                    <g transform="matrix(0.719231,0,0,1,7413.56,0)">
                        <path d="M26702.7,10230.5L26702.7,10225.7L26723.5,10225.7L26723.5,10230.8L26708.5,10247.4L26724.3,10247.4L26724.3,10252.2L26701.7,10252.2L26701.7,10246.8L26716.2,10230.5L26702.7,10230.5Z" style="fill:rgb(70,73,88);fill-rule:nonzero;"/>
                    </g>
                    <g transform="matrix(0.719231,0,0,1,7413.56,0)">
                        <rect x="26743.8" y="10215.1" width="5.6" height="37.1" style="fill:rgb(70,73,88);fill-rule:nonzero;"/>
                    </g>
                    <g transform="matrix(0.719231,0,0,1,7413.56,0)">
                        <path d="M26782,10241.4L26761.1,10241.4C26761.3,10243.3 26762.2,10244.8 26763.8,10246C26765.4,10247.2 26767.3,10247.8 26769.4,10247.8C26772.7,10247.8 26775.3,10246.8 26777,10244.6L26780.2,10248.1C26777.3,10251.1 26773.6,10252.6 26769,10252.6C26765.3,10252.6 26762.1,10251.4 26759.5,10248.9C26756.9,10246.4 26755.5,10243.1 26755.5,10238.9C26755.5,10234.7 26756.9,10231.4 26759.5,10228.9C26762.2,10226.4 26765.4,10225.2 26769,10225.2C26772.6,10225.2 26775.7,10226.3 26778.2,10228.5C26780.7,10230.7 26782,10233.7 26782,10237.5L26782,10241.4ZM26761.1,10237L26776.4,10237C26776.4,10234.7 26775.7,10233 26774.3,10231.8C26772.9,10230.6 26771.2,10230 26769.1,10230C26767.1,10230 26765.2,10230.6 26763.6,10231.9C26762,10233.1 26761.1,10234.8 26761.1,10237Z" style="fill:rgb(70,73,88);fill-rule:nonzero;"/>
                    </g>
                    <g transform="matrix(0.719231,0,0,1,7413.56,0)">
                        <path d="M26806.9,10237.8L26806.9,10252.2L26801.3,10252.2L26801.3,10225.6L26806.9,10225.6L26806.9,10230.5C26807.7,10228.8 26809,10227.5 26810.6,10226.6C26812.2,10225.7 26813.9,10225.2 26815.8,10225.2C26820,10225.2 26822.8,10226.9 26824.3,10230.4C26827,10226.9 26830.3,10225.2 26834.2,10225.2C26837.2,10225.2 26839.6,10226.1 26841.5,10228C26843.3,10229.8 26844.2,10232.4 26844.2,10235.9L26844.2,10252.2L26838.6,10252.2L26838.6,10237.6C26838.6,10232.7 26836.6,10230.2 26832.5,10230.2C26830.6,10230.2 26829,10230.9 26827.6,10232.1C26826.2,10233.3 26825.4,10235.1 26825.3,10237.4L26825.3,10252.2L26819.7,10252.2L26819.7,10237.6C26819.7,10235.1 26819.3,10233.2 26818.4,10232C26817.5,10230.8 26816.1,10230.2 26814.1,10230.2C26812.2,10230.2 26810.5,10230.9 26809.1,10232.2C26807.7,10233.5 26806.9,10235.3 26806.9,10237.8Z" style="fill:rgb(70,73,88);fill-rule:nonzero;"/>
                    </g>
                    <g transform="matrix(0.719231,0,0,1,7413.56,0)">
                        <path d="M26873.3,10252.2L26868.2,10252.2L26868.2,10248.6C26866,10251.3 26863.1,10252.6 26859.4,10252.6C26856.6,10252.6 26854.3,10251.8 26852.5,10250.2C26850.7,10248.7 26849.8,10246.6 26849.8,10244C26849.8,10241.4 26850.8,10239.4 26852.7,10238.1C26854.6,10236.8 26857.2,10236.1 26860.5,10236.1L26867.8,10236.1L26867.8,10235.1C26867.8,10231.6 26865.8,10229.9 26861.9,10229.9C26859.4,10229.9 26856.9,10230.8 26854.2,10232.6L26851.7,10229.1C26854.9,10226.5 26858.6,10225.2 26862.7,10225.2C26865.8,10225.2 26868.4,10226 26870.4,10227.6C26872.4,10229.2 26873.3,10231.6 26873.3,10235.1L26873.3,10252.2ZM26867.7,10242.3L26867.7,10240.1L26861.4,10240.1C26857.4,10240.1 26855.4,10241.3 26855.4,10243.9C26855.4,10245.1 26855.9,10246.1 26856.9,10246.8C26857.9,10247.5 26859.3,10247.9 26861.1,10247.9C26862.9,10247.9 26864.4,10247.4 26865.7,10246.4C26867.1,10245.4 26867.7,10244 26867.7,10242.3Z" style="fill:rgb(70,73,88);fill-rule:nonzero;"/>
                    </g>
                    <g transform="matrix(0.719231,0,0,1,7413.56,0)">
                        <path d="M26886.5,10237.8L26886.5,10252.2L26880.9,10252.2L26880.9,10225.6L26886.5,10225.6L26886.5,10230.5C26887.4,10228.8 26888.6,10227.5 26890.2,10226.6C26891.8,10225.7 26893.5,10225.2 26895.3,10225.2C26898.3,10225.2 26900.8,10226.1 26902.6,10228C26904.5,10229.8 26905.4,10232.4 26905.4,10235.9L26905.4,10252.2L26899.8,10252.2L26899.8,10237.6C26899.8,10232.7 26897.8,10230.2 26893.7,10230.2C26891.8,10230.2 26890.1,10230.9 26888.6,10232.2C26887.2,10233.5 26886.5,10235.3 26886.5,10237.8Z" style="fill:rgb(70,73,88);fill-rule:nonzero;"/>
                    </g>
                    <g transform="matrix(0.719231,0,0,1,7413.56,0)">
                        <path d="M26923.8,10252.6C26920.4,10252.6 26917.5,10251.3 26915,10248.8C26912.5,10246.3 26911.2,10242.9 26911.2,10238.8C26911.2,10234.7 26912.5,10231.4 26915.1,10228.9C26917.7,10226.4 26920.7,10225.2 26924.3,10225.2C26927.8,10225.2 26930.7,10226.7 26932.8,10229.7L26932.8,10215.1L26938.4,10215.1L26938.4,10252.2L26932.8,10252.2L26932.8,10248.2C26930.8,10251.1 26927.8,10252.6 26923.8,10252.6ZM26916.8,10239.1C26916.8,10241.6 26917.7,10243.6 26919.3,10245.2C26920.9,10246.9 26922.8,10247.6 26925,10247.6C26927.2,10247.6 26929.1,10246.8 26930.6,10245.2C26932.2,10243.6 26932.9,10241.5 26932.9,10239C26932.9,10236.5 26932.2,10234.4 26930.6,10232.6C26929.1,10231 26927.2,10230.1 26925,10230.1C26922.8,10230.1 26920.8,10231 26919.2,10232.6C26917.6,10234.4 26916.8,10236.5 26916.8,10239.1Z" style="fill:rgb(70,73,88);fill-rule:nonzero;"/>
                    </g>
                    <g transform="matrix(0.719231,0,0,1,7413.56,0)">
                        <path d="M26967.8,10252.2L26962.7,10252.2L26962.7,10248.6C26960.5,10251.3 26957.6,10252.6 26953.9,10252.6C26951.1,10252.6 26948.8,10251.8 26947,10250.2C26945.2,10248.7 26944.3,10246.6 26944.3,10244C26944.3,10241.4 26945.3,10239.4 26947.2,10238.1C26949.1,10236.8 26951.7,10236.1 26955,10236.1L26962.3,10236.1L26962.3,10235.1C26962.3,10231.6 26960.3,10229.9 26956.4,10229.9C26953.9,10229.9 26951.4,10230.8 26948.7,10232.6L26946.2,10229.1C26949.4,10226.5 26953.1,10225.2 26957.2,10225.2C26960.3,10225.2 26962.9,10226 26964.9,10227.6C26966.9,10229.2 26967.8,10231.6 26967.8,10235.1L26967.8,10252.2ZM26962.2,10242.3L26962.2,10240.1L26955.9,10240.1C26951.9,10240.1 26949.9,10241.3 26949.9,10243.9C26949.9,10245.1 26950.4,10246.1 26951.4,10246.8C26952.4,10247.5 26953.8,10247.9 26955.6,10247.9C26957.4,10247.9 26958.9,10247.4 26960.2,10246.4C26961.6,10245.4 26962.2,10244 26962.2,10242.3Z" style="fill:rgb(70,73,88);fill-rule:nonzero;"/>
                    </g>
                    <g transform="matrix(0.719231,0,0,1,7413.56,0)">
                        <path d="M26982.3,10230.1L26982.3,10243.6C26982.3,10244.9 26982.6,10245.9 26983.3,10246.6C26984,10247.4 26984.9,10247.8 26986.1,10247.8C26987.3,10247.8 26988.4,10247.2 26989.5,10246L26991.8,10250C26989.9,10251.7 26987.7,10252.6 26985.3,10252.6C26982.9,10252.6 26980.9,10251.8 26979.2,10250.1C26977.5,10248.5 26976.7,10246.2 26976.7,10243.5L26976.7,10230.1L26973.3,10230.1L26973.3,10225.6L26976.7,10225.6L26976.7,10217.2L26982.3,10217.2L26982.3,10225.6L26989.3,10225.6L26989.3,10230.1L26982.3,10230.1Z" style="fill:rgb(70,73,88);fill-rule:nonzero;"/>
                    </g>
                    <g transform="matrix(0.719231,0,0,1,7413.56,0)">
                        <path d="M27023.7,10225.2C27027.3,10225.2 27030.4,10226.4 27032.9,10228.9C27035.4,10231.4 27036.7,10234.6 27036.7,10238.8C27036.7,10242.9 27035.4,10246.2 27032.9,10248.8C27030.4,10251.3 27027.5,10252.6 27024.1,10252.6C27020.8,10252.6 27017.8,10251.1 27015.1,10248.2L27015.1,10261.9L27009.5,10261.9L27009.5,10225.6L27015.1,10225.6L27015.1,10230.2C27017.3,10226.9 27020.2,10225.2 27023.7,10225.2ZM27015,10239C27015,10241.5 27015.8,10243.6 27017.3,10245.2C27018.8,10246.8 27020.7,10247.6 27022.9,10247.6C27025.1,10247.6 27027,10246.8 27028.6,10245.2C27030.3,10243.6 27031.1,10241.5 27031.1,10239C27031.1,10236.4 27030.3,10234.3 27028.7,10232.6C27027.1,10230.9 27025.2,10230.1 27022.9,10230.1C27020.7,10230.1 27018.8,10230.9 27017.3,10232.6C27015.8,10234.3 27015,10236.4 27015,10239Z" style="fill:rgb(70,73,88);fill-rule:nonzero;"/>
                    </g>
                    <g transform="matrix(0.719231,0,0,1,7413.56,0)">
                        <path d="M27064.4,10252.2L27059.3,10252.2L27059.3,10248.6C27057.1,10251.3 27054.1,10252.6 27050.4,10252.6C27047.7,10252.6 27045.4,10251.8 27043.6,10250.2C27041.8,10248.7 27040.8,10246.6 27040.8,10244C27040.8,10241.4 27041.8,10239.4 27043.7,10238.1C27045.7,10236.8 27048.3,10236.1 27051.6,10236.1L27058.8,10236.1L27058.8,10235.1C27058.8,10231.6 27056.9,10229.9 27052.9,10229.9C27050.5,10229.9 27047.9,10230.8 27045.2,10232.6L27042.7,10229.1C27046,10226.5 27049.6,10225.2 27053.7,10225.2C27056.9,10225.2 27059.4,10226 27061.4,10227.6C27063.4,10229.2 27064.4,10231.6 27064.4,10235.1L27064.4,10252.2ZM27058.8,10242.3L27058.8,10240.1L27052.5,10240.1C27048.5,10240.1 27046.4,10241.3 27046.4,10243.9C27046.4,10245.1 27046.9,10246.1 27047.9,10246.8C27048.9,10247.5 27050.3,10247.9 27052.1,10247.9C27053.9,10247.9 27055.5,10247.4 27056.8,10246.4C27058.1,10245.4 27058.8,10244 27058.8,10242.3Z" style="fill:rgb(70,73,88);fill-rule:nonzero;"/>
                    </g>
                    <g transform="matrix(0.719231,0,0,1,7413.56,0)">
                        <path d="M27085.9,10230.9C27083.1,10230.9 27081,10231.8 27079.6,10233.6C27078.2,10235.4 27077.5,10237.8 27077.5,10240.8L27077.5,10252.2L27071.9,10252.2L27071.9,10225.6L27077.5,10225.6L27077.5,10231C27078.4,10229.3 27079.7,10227.9 27081.2,10226.9C27082.8,10225.8 27084.4,10225.2 27086.1,10225.2L27086.2,10230.9C27086.1,10230.9 27086,10230.9 27085.9,10230.9Z" style="fill:rgb(70,73,88);fill-rule:nonzero;"/>
                    </g>
                    <g transform="matrix(0.719231,0,0,1,7413.56,0)">
                        <path d="M27098.4,10230.1L27098.4,10243.6C27098.4,10244.9 27098.8,10245.9 27099.4,10246.6C27100.1,10247.4 27101,10247.8 27102.2,10247.8C27103.4,10247.8 27104.6,10247.2 27105.7,10246L27108,10250C27106,10251.7 27103.9,10252.6 27101.5,10252.6C27099.1,10252.6 27097.1,10251.8 27095.4,10250.1C27093.7,10248.5 27092.8,10246.2 27092.8,10243.5L27092.8,10230.1L27089.5,10230.1L27089.5,10225.6L27092.8,10225.6L27092.8,10217.2L27098.4,10217.2L27098.4,10225.6L27105.4,10225.6L27105.4,10230.1L27098.4,10230.1Z" style="fill:rgb(70,73,88);fill-rule:nonzero;"/>
                    </g>
                    <g transform="matrix(0.719231,0,0,1,7413.56,0)">
                        <path d="M27133.7,10252.2L27128.6,10252.2L27128.6,10248.6C27126.4,10251.3 27123.5,10252.6 27119.8,10252.6C27117,10252.6 27114.7,10251.8 27112.9,10250.2C27111.1,10248.7 27110.2,10246.6 27110.2,10244C27110.2,10241.4 27111.2,10239.4 27113.1,10238.1C27115,10236.8 27117.6,10236.1 27120.9,10236.1L27128.2,10236.1L27128.2,10235.1C27128.2,10231.6 27126.2,10229.9 27122.3,10229.9C27119.8,10229.9 27117.3,10230.8 27114.6,10232.6L27112.1,10229.1C27115.3,10226.5 27119,10225.2 27123.1,10225.2C27126.2,10225.2 27128.8,10226 27130.8,10227.6C27132.8,10229.2 27133.7,10231.6 27133.7,10235.1L27133.7,10252.2ZM27128.1,10242.3L27128.1,10240.1L27121.8,10240.1C27117.8,10240.1 27115.8,10241.3 27115.8,10243.9C27115.8,10245.1 27116.3,10246.1 27117.3,10246.8C27118.3,10247.5 27119.7,10247.9 27121.5,10247.9C27123.3,10247.9 27124.8,10247.4 27126.1,10246.4C27127.5,10245.4 27128.1,10244 27128.1,10242.3Z" style="fill:rgb(70,73,88);fill-rule:nonzero;"/>
                    </g>
                    <g transform="matrix(0.719231,0,0,1,7413.56,0)">
                        <path d="M27165.9,10225.6L27165.9,10248.8C27165.9,10253.5 27164.6,10257 27162.1,10259.4C27159.5,10261.7 27156.2,10262.9 27152.2,10262.9C27148.2,10262.9 27144.6,10261.6 27141.4,10259.1L27144,10254.9C27146.6,10256.9 27149.3,10257.9 27151.9,10257.9C27154.6,10257.9 27156.7,10257.2 27158.2,10255.8C27159.8,10254.4 27160.5,10252.2 27160.5,10249.2L27160.5,10245.9C27159.7,10247.4 27158.5,10248.7 27157,10249.6C27155.4,10250.5 27153.7,10251 27151.7,10251C27148.2,10251 27145.3,10249.8 27143,10247.3C27140.8,10244.8 27139.6,10241.8 27139.6,10238.1C27139.6,10234.4 27140.8,10231.4 27143,10228.9C27145.3,10226.4 27148.2,10225.2 27151.7,10225.2C27155.2,10225.2 27158.1,10226.6 27160.3,10229.6L27160.3,10225.6L27165.9,10225.6ZM27145.1,10237.9C27145.1,10240.1 27145.8,10241.9 27147.2,10243.5C27148.5,10245.1 27150.3,10245.9 27152.6,10245.9C27154.9,10245.9 27156.8,10245.1 27158.2,10243.6C27159.6,10242.1 27160.3,10240.2 27160.3,10237.9C27160.3,10235.6 27159.6,10233.7 27158.1,10232.1C27156.7,10230.5 27154.9,10229.7 27152.6,10229.7C27150.3,10229.7 27148.5,10230.5 27147.2,10232.1C27145.8,10233.8 27145.1,10235.7 27145.1,10237.9Z" style="fill:rgb(70,73,88);fill-rule:nonzero;"/>
                    </g>
                    <g transform="matrix(0.719231,0,0,1,7413.56,0)">
                        <path d="M27198.5,10241.4L27177.6,10241.4C27177.8,10243.3 27178.7,10244.8 27180.3,10246C27181.9,10247.2 27183.8,10247.8 27185.9,10247.8C27189.2,10247.8 27191.8,10246.8 27193.5,10244.6L27196.7,10248.1C27193.8,10251.1 27190.1,10252.6 27185.5,10252.6C27181.8,10252.6 27178.6,10251.4 27176,10248.9C27173.4,10246.4 27172,10243.1 27172,10238.9C27172,10234.7 27173.4,10231.4 27176,10228.9C27178.7,10226.4 27181.9,10225.2 27185.5,10225.2C27189.1,10225.2 27192.2,10226.3 27194.7,10228.5C27197.2,10230.7 27198.5,10233.7 27198.5,10237.5L27198.5,10241.4ZM27177.6,10237L27192.9,10237C27192.9,10234.7 27192.2,10233 27190.8,10231.8C27189.4,10230.6 27187.7,10230 27185.6,10230C27183.6,10230 27181.7,10230.6 27180.1,10231.9C27178.5,10233.1 27177.6,10234.8 27177.6,10237ZM27188.5,10222.1L27183.4,10222.1L27188.7,10214.9L27194.6,10217.3L27188.5,10222.1Z" style="fill:rgb(70,73,88);fill-rule:nonzero;"/>
                    </g>
                    <g transform="matrix(0.719231,0,0,1,7413.56,0)">
                        <path d="M27217.7,10216.4L27224.7,10216.4L27224.7,10222.9L27223.2,10240.9L27219.2,10240.9L27217.7,10222.9L27217.7,10216.4ZM27221.2,10252.6C27220.2,10252.6 27219.3,10252.2 27218.6,10251.5C27217.9,10250.8 27217.5,10249.9 27217.5,10248.9C27217.5,10247.9 27217.9,10247 27218.6,10246.2C27219.3,10245.5 27220.2,10245.1 27221.2,10245.1C27222.2,10245.1 27223.1,10245.5 27223.8,10246.2C27224.6,10247 27224.9,10247.9 27224.9,10248.9C27224.9,10249.9 27224.6,10250.8 27223.8,10251.5C27223.1,10252.2 27222.2,10252.6 27221.2,10252.6Z" style="fill:rgb(70,73,88);fill-rule:nonzero;"/>
                    </g>
                </g>
                <g id="Mandexpa" transform="matrix(0.228375,0,0,0.384811,-138.504,-129.521)">
                    <path d="M1621.54,1275.48L1588.88,1275.48C1587.48,1275.39 1586.36,1274.3 1586.27,1272.86L1586.27,1169.55C1586.36,1168.14 1587.44,1167.02 1588.88,1166.94C1600.28,1166.94 1611.68,1166.91 1623.09,1166.94C1641.15,1167.05 1660.37,1172.58 1671.2,1188.26C1677.63,1197.56 1680.17,1209.21 1680.17,1220.69C1680.17,1239.36 1672.84,1258.63 1655.83,1268.05C1645.4,1273.83 1633.18,1275.45 1621.54,1275.48ZM1482.19,1275.48L1465.58,1275.48C1464.17,1275.39 1463.05,1274.3 1462.96,1272.86L1462.96,1169.55C1463.05,1168.14 1464.14,1167.02 1465.58,1166.94L1482.19,1166.94C1482.29,1166.94 1482.39,1166.95 1482.49,1166.95C1483.16,1167.07 1483.57,1167.13 1484.28,1167.99L1536.72,1238.79L1536.72,1169.55C1536.72,1169.55 1537.24,1167.06 1539.33,1166.94L1555.94,1166.94C1557.35,1167.02 1558.47,1168.11 1558.56,1169.55L1558.56,1272.86C1558.47,1274.27 1557.38,1275.39 1555.94,1275.48L1537.93,1275.48C1536.64,1275.4 1536.59,1275.33 1535.83,1274.42L1484.8,1205.41L1484.8,1272.86C1484.8,1272.86 1484.4,1275.34 1482.19,1275.48ZM1811.42,1275.48L1790.73,1275.48C1788.82,1275.36 1787.52,1273.27 1788.53,1271.46L1821.42,1219.79L1790.91,1170.93C1790.91,1170.93 1790.1,1167.13 1793.12,1166.94L1813.67,1166.94C1813.77,1166.94 1813.87,1166.95 1813.97,1166.95C1815.18,1167.16 1815.22,1167.22 1815.88,1168.16L1835.98,1200.09L1856.09,1168.16C1856.09,1168.16 1856.79,1167.02 1858.3,1166.94L1878.85,1166.94C1880.74,1167.06 1882.02,1169.16 1881.06,1170.93L1850.54,1219.79L1883.44,1271.46C1883.44,1271.46 1884.27,1275.29 1881.24,1275.48L1860.55,1275.48C1859.19,1275.4 1859.07,1275.29 1858.33,1274.24L1835.98,1238.37L1813.64,1274.24C1813.64,1274.24 1812.94,1275.39 1811.42,1275.48ZM1775.39,1275.48L1704.59,1275.48C1703.18,1275.39 1702.06,1274.3 1701.97,1272.86L1701.97,1169.55C1702.06,1168.14 1703.15,1167.02 1704.59,1166.94L1773.7,1166.94C1773.8,1166.94 1773.91,1166.95 1774.01,1166.95C1775.83,1167.29 1776.22,1168.13 1776.31,1169.55L1776.31,1185.95C1776.23,1187.36 1775.14,1188.48 1773.7,1188.57L1723.81,1188.57L1723.81,1210.69L1768.35,1210.69C1769.76,1210.77 1770.87,1211.86 1770.96,1213.3L1770.96,1228.82C1770.88,1230.22 1769.79,1231.34 1768.35,1231.43L1723.81,1231.43L1723.81,1253.85L1775.39,1253.85C1776.79,1253.93 1777.91,1255.02 1778,1256.46L1778,1272.86C1777.91,1274.27 1776.83,1275.39 1775.39,1275.48ZM1919.24,1275.48L1902.63,1275.48C1901.23,1275.39 1900.11,1274.3 1900.02,1272.86L1900.02,1169.55C1900.11,1168.14 1901.2,1167.02 1902.63,1166.94C1914.01,1166.94 1925.39,1166.92 1936.77,1166.94C1952.68,1167.01 1969.75,1170.47 1977.44,1185.09C1981.95,1193.65 1982.62,1203.98 1981.61,1213.06C1980.54,1222.61 1976.47,1232.12 1967.88,1237.82C1958.85,1243.81 1947.59,1245.12 1937.04,1245.17L1936.7,1245.17L1921.86,1245.17L1921.86,1272.86C1921.77,1274.27 1920.68,1275.39 1919.24,1275.48ZM1228.12,1275.48L1211.51,1275.48C1210.1,1275.39 1208.98,1274.3 1208.89,1272.86L1208.89,1169.55C1208.98,1168.14 1210.07,1167.02 1211.51,1166.94L1237.4,1166.94C1237.52,1166.94 1237.62,1166.95 1237.74,1166.96C1239.11,1167.22 1239.17,1167.33 1239.78,1168.46L1267.11,1228.16L1294.43,1168.46C1294.43,1168.46 1295.08,1167.05 1296.81,1166.94L1322.57,1166.94C1323.97,1167.02 1325.09,1168.11 1325.18,1169.55L1325.18,1272.86C1325.09,1274.27 1324,1275.39 1322.57,1275.48L1305.95,1275.48C1304.55,1275.39 1303.43,1274.3 1303.34,1272.86L1303.34,1203.66L1273.96,1264.98C1273.96,1264.98 1273.31,1266.35 1271.61,1266.46L1262.32,1266.46C1260.81,1266.36 1260.65,1266.21 1259.96,1264.97L1230.73,1203.7L1230.73,1272.86C1230.73,1272.86 1230.33,1275.34 1228.12,1275.48ZM2003.28,1275.48L1985.54,1275.48C1983.79,1275.37 1982.54,1273.57 1983.13,1271.85L2026.49,1168.54C2027.17,1167.15 2027.44,1167.02 2028.89,1166.94L2046.63,1166.94C2046.73,1166.94 2046.84,1166.95 2046.94,1166.95C2048.34,1167.2 2048.45,1167.34 2049.04,1168.54L2092.39,1271.85C2092.97,1273.51 2091.8,1275.36 2089.99,1275.48L2072.25,1275.48C2070.71,1275.38 2070.48,1275.18 2069.84,1273.87L2060.66,1251.97L2014.87,1251.97L2005.68,1273.87C2005.01,1275.26 2004.74,1275.39 2003.28,1275.48ZM1359.58,1275.48L1341.85,1275.48C1340.08,1275.37 1338.83,1273.6 1339.44,1271.85L1382.79,1168.54C1383.48,1167.15 1383.75,1167.02 1385.2,1166.94L1402.94,1166.94C1403.04,1166.94 1403.14,1166.95 1403.24,1166.95C1404.64,1167.2 1404.76,1167.34 1405.35,1168.54L1448.7,1271.85C1449.28,1273.51 1448.2,1275.36 1446.29,1275.48L1428.56,1275.48C1427.01,1275.38 1426.79,1275.18 1426.15,1273.87L1416.97,1251.97L1371.17,1251.97L1361.99,1273.87C1361.31,1275.26 1361.04,1275.39 1359.58,1275.48ZM1608.1,1188.27L1608.1,1253.85C1624.92,1253.85 1643.69,1256.74 1653.57,1240.62C1658.39,1232.76 1658.87,1222.74 1657.79,1214.38C1656.79,1206.62 1653.46,1198.93 1646.58,1194.25C1635.87,1186.97 1621.99,1188.27 1608.1,1188.27ZM2023.82,1230.64L2051.71,1230.64L2037.76,1197.43C2033.11,1208.5 2028.47,1219.57 2023.82,1230.64ZM1380.12,1230.64L1408.02,1230.64L1394.07,1197.43C1389.42,1208.5 1384.77,1219.57 1380.12,1230.64ZM1921.86,1187.98L1921.86,1224.14L1938.52,1224.14C1945.3,1224.12 1952.74,1223.69 1956.58,1217.9C1959.86,1212.97 1960.19,1206.34 1959.45,1201.07C1958.27,1192.77 1949.37,1188.08 1936.54,1187.98C1931.65,1187.96 1926.75,1187.98 1921.86,1187.98Z" style="fill:rgb(52,24,130);"/>
                </g>
                <g id="Visuel" transform="matrix(1.02179,0,0,4.6009,122.842,-692.709)">
                    <g id="_-Courbes-" serif:id="(Courbes)" transform="matrix(0.102608,0,0,0.0383973,-155.888,89.0422)">
                        <path d="M2659.54,3172.7L2584.85,3172.7C2572.08,3172.7 2561.71,3162.33 2561.71,3149.56L2561.71,3067.99C2561.71,3055.22 2572.08,3044.85 2584.85,3044.85L2659.54,3044.85C2672.31,3044.85 2682.68,3055.22 2682.68,3067.99L2682.68,3149.56C2682.68,3162.33 2672.31,3172.7 2659.54,3172.7ZM3092.62,3172.7L2901.08,3172.7C2888.31,3172.7 2877.95,3162.33 2877.95,3149.56L2877.95,2981.08C2888.13,2980.89 2898.16,2977.83 2906.73,2972.53L3103.32,3170.08C3100.12,3171.75 3096.48,3172.7 3092.62,3172.7ZM2343.31,3172.7L2151.76,3172.7C2148.18,3172.7 2144.79,3171.88 2141.76,3170.43L2337.51,2972.86C2340.12,2974.55 2342.87,2976.01 2345.74,2977.2C2352.45,2979.99 2359.48,2981.23 2366.44,2981.12L2366.44,3149.56C2366.44,3162.33 2356.08,3172.7 2343.31,3172.7ZM2128.63,2935.05L2313.01,2935.05C2314.48,2945.29 2319.12,2954.95 2325.88,2962.73L2130.85,3159.46C2129.43,3156.46 2128.63,3153.1 2128.63,3149.56L2128.63,2935.05L2128.63,2935.05ZM2931.31,2935.05L3115.76,2935.05L3115.76,3149.56C3115.76,3152.81 3115.09,3155.91 3113.88,3158.71L2918.59,2962.66C2921.29,2959.66 2923.64,2956.36 2925.56,2952.78C2928.51,2947.26 2930.43,2941.23 2931.31,2935.05ZM2128.63,2919.63L2128.63,2919.63L2128.63,2750.04C2140.62,2749.83 2152.4,2745.62 2161.82,2738.47L2322.84,2895.57C2317.74,2902.66 2314.39,2910.99 2313.09,2919.63L2128.63,2919.63ZM3115.76,2919.63L2931.32,2919.63C2930.64,2914.74 2929.3,2909.94 2927.29,2905.42C2925.75,2901.97 2923.83,2898.71 2921.58,2895.7L3082.87,2739C3086.59,2741.91 3090.68,2744.34 3095.05,2746.16C3101.66,2748.91 3108.72,2750.19 3115.76,2750.14L3115.76,2919.63ZM3062.32,2704.01C3063.56,2712.64 3067.05,2720.86 3072.17,2727.89L2910.72,2884.75C2901.44,2877.69 2889.98,2873.47 2878.29,2873.36C2877.95,2873.36 2877.6,2873.36 2877.25,2873.36C2863.8,2873.57 2850.67,2878.88 2840.94,2888.05C2837.71,2891.09 2834.89,2894.55 2832.54,2898.29L2664.22,2729.97C2666.83,2726.84 2669.06,2723.39 2670.85,2719.7C2673.23,2714.75 2674.8,2709.43 2675.56,2704.01L3062.32,2704.01ZM2568.76,2704.01C2570.12,2713.5 2574.2,2722.49 2580.18,2729.96L2411.87,2898.27C2402.1,2883.35 2384.7,2873.53 2366.79,2873.36C2366.44,2873.36 2366.09,2873.36 2365.75,2873.36C2354,2873.54 2342.71,2877.55 2333.6,2884.52L2172.64,2727.47C2173.97,2725.65 2175.17,2723.74 2176.24,2721.74C2179.2,2716.22 2181.12,2710.19 2181.99,2704.01L2568.76,2704.01ZM3115.09,2734.85L3115.18,2734.85L3115.14,2734.85L3115.09,2734.85ZM3114.75,2734.84L3114.83,2734.84L3114.77,2734.84L3114.75,2734.84ZM3114.36,2734.83L3114.42,2734.83L3114.41,2734.83L3114.36,2734.83ZM3114,2734.81L3114.09,2734.82L3114.04,2734.82L3114,2734.81ZM3113.67,2734.8L3113.71,2734.8L3113.68,2734.8L3113.67,2734.8ZM3113.26,2734.77L3113.34,2734.78L3113.31,2734.77L3113.26,2734.77ZM3112.92,2734.74L3113.01,2734.75L3112.95,2734.75L3112.92,2734.74ZM3112.55,2734.71L3112.6,2734.72L3112.59,2734.72L3112.55,2734.71ZM3112.18,2734.68L3112.27,2734.69L3112.23,2734.68L3112.18,2734.68ZM3111.85,2734.64L3111.91,2734.65L3111.87,2734.64L3111.85,2734.64ZM3111.45,2734.6L3111.53,2734.61L3111.51,2734.6L3111.45,2734.6ZM3111.11,2734.55L3111.2,2734.57L3111.15,2734.56L3111.11,2734.55ZM3110.79,2734.51L3110.79,2734.51L3110.79,2734.51L3110.79,2734.51ZM3110.39,2734.45L3110.47,2734.47L3110.44,2734.46L3110.39,2734.45ZM3110.06,2734.4L3110.14,2734.41L3110.08,2734.41L3110.06,2734.4ZM3109.68,2734.34L3109.74,2734.35L3109.73,2734.35L3109.68,2734.34ZM3109.33,2734.28L3109.43,2734.29L3109.38,2734.28L3109.33,2734.28ZM3109.02,2734.22L3109.05,2734.22L3109.03,2734.22L3109.02,2734.22ZM3108.62,2734.14L3108.71,2734.16L3108.68,2734.15L3108.62,2734.14ZM3108.3,2734.07L3108.38,2734.09L3108.33,2734.08L3108.3,2734.07ZM3107.94,2734L3107.99,2734.01L3107.98,2734L3107.94,2734ZM3107.59,2733.91L3107.67,2733.93L3107.63,2733.92L3107.59,2733.91ZM3107.27,2733.84L3107.33,2733.85L3107.28,2733.84L3107.27,2733.84ZM3106.89,2733.74L3106.96,2733.76L3106.94,2733.76L3106.89,2733.74ZM3106.57,2733.66L3106.65,2733.68L3106.6,2733.67L3106.57,2733.66ZM3106.25,2733.58L3106.26,2733.58L3106.26,2733.58L3106.25,2733.58ZM3105.87,2733.47L3105.95,2733.49L3105.91,2733.48L3105.87,2733.47ZM3105.56,2733.38L3105.62,2733.4L3105.58,2733.38L3105.56,2733.38ZM3105.2,2733.27L3105.25,2733.28L3105.24,2733.28L3105.2,2733.27ZM3104.86,2733.16L3104.95,2733.19L3104.9,2733.18L3104.86,2733.16ZM3104.56,2733.07L3104.58,2733.07L3104.57,2733.07L3104.56,2733.07ZM3104.19,2732.94L3104.26,2732.97L3104.23,2732.96L3104.19,2732.94ZM3103.88,2732.84L3103.94,2732.86L3103.9,2732.84L3103.88,2732.84ZM3103.54,2732.72L3103.57,2732.73L3103.57,2732.73L3103.54,2732.72ZM3103.2,2732.59L3103.27,2732.62L3103.24,2732.61L3103.2,2732.59ZM3102.9,2732.48L3102.94,2732.49L3102.91,2732.48L3102.9,2732.48ZM3102.54,2732.34L3102.6,2732.36L3102.58,2732.36L3102.54,2732.34ZM3102.23,2732.22L3102.3,2732.24L3102.26,2732.23L3102.23,2732.22ZM3101.57,2731.94L3101.64,2731.97L3101.61,2731.96L3101.57,2731.94ZM3101.27,2731.81L3101.32,2731.83L3101.29,2731.82L3101.27,2731.81ZM3100.94,2731.67L3100.98,2731.68L3100.97,2731.68L3100.94,2731.67ZM3100.62,2731.52L3100.68,2731.55L3100.65,2731.53L3100.62,2731.52ZM3099.98,2731.22L3100.03,2731.25L3100.01,2731.24L3099.98,2731.22ZM3099.68,2731.08L3099.73,2731.1L3099.7,2731.09L3099.68,2731.08ZM3099.38,2730.93L3099.39,2730.93L3099.39,2730.93L3099.38,2730.93ZM3099.05,2730.76L3099.1,2730.78L3099.08,2730.77L3099.05,2730.76ZM3098.76,2730.61L3098.77,2730.61L3098.77,2730.61L3098.76,2730.61ZM3098.44,2730.43L3098.47,2730.45L3098.46,2730.45L3098.44,2730.43ZM3098.14,2730.27L3098.18,2730.29L3098.15,2730.28L3098.14,2730.27ZM3097.52,2729.93L3097.56,2729.95L3097.54,2729.94L3097.52,2729.93ZM3097.24,2729.76L3097.25,2729.77L3097.24,2729.76L3097.24,2729.76ZM3096.94,2729.58L3096.94,2729.59L3096.94,2729.59L3096.94,2729.58ZM3096.63,2729.4L3096.66,2729.42L3096.64,2729.41L3096.63,2729.4ZM3096.04,2729.03L3096.06,2729.04L3096.05,2729.04L3096.04,2729.03ZM3095.76,2728.85L3095.77,2728.86L3095.76,2728.85L3095.76,2728.85ZM3095.17,2728.46L3095.19,2728.47L3095.18,2728.47L3095.17,2728.46ZM3083.66,2716.73C3083.66,2716.73 3083.66,2716.73 3083.66,2716.73ZM3079,2706.93L3079,2706.93L3079,2706.93L3079,2706.93ZM3078.62,2705.69L3078.62,2705.69L3078.62,2705.69L3078.62,2705.69ZM3078.51,2705.27L3078.51,2705.27L3078.51,2705.27L3078.51,2705.27ZM3062.41,2688.59L2675.55,2688.59C2674.71,2682.61 2672.9,2676.79 2670.11,2671.43C2668.47,2668.28 2666.5,2665.32 2664.26,2662.58L2861.59,2465.26C2870.61,2456.23 2885.28,2456.23 2894.3,2465.26L3082.7,2653.65C3080.9,2655.03 3079.2,2656.53 3077.59,2658.13C3069.43,2666.3 3064.12,2677.18 3062.41,2688.59ZM3077.99,2688.59C3077.99,2688.59 3077.99,2688.59 3077.99,2688.59ZM2568.85,2688.59L2182.01,2688.59C2181.32,2683.69 2179.98,2678.9 2177.97,2674.38C2174.35,2666.25 2168.58,2659.21 2161.53,2653.81L2350.08,2465.26C2359.11,2456.23 2373.77,2456.23 2382.8,2465.26L2580.1,2662.55C2574.16,2670.04 2570.27,2679.13 2568.85,2688.59ZM3079.88,2682.45L3079.87,2682.47L3079.87,2682.47L3079.88,2682.45ZM3080.06,2682.01L3080.04,2682.06L3080.05,2682.04L3080.06,2682.01ZM3080.24,2681.58L3080.22,2681.65L3080.23,2681.62L3080.24,2681.58ZM3080.43,2681.16L3080.4,2681.24L3080.41,2681.21L3080.43,2681.16ZM3080.62,2680.75L3080.59,2680.83L3080.6,2680.79L3080.62,2680.75ZM3080.82,2680.34L3080.78,2680.42L3080.8,2680.38L3080.82,2680.34ZM3081.02,2679.93L3080.97,2680.02L3081,2679.97L3081.02,2679.93ZM3081.22,2679.53L3081.18,2679.61L3081.2,2679.56L3081.22,2679.53ZM3081.43,2679.13L3081.39,2679.21L3081.41,2679.16L3081.43,2679.13ZM3081.64,2678.73L3081.6,2678.81L3081.63,2678.76L3081.64,2678.73ZM3081.86,2678.34L3081.82,2678.4L3081.85,2678.36L3081.86,2678.34ZM3082.08,2677.95L3082.05,2677.99L3082.07,2677.96L3082.08,2677.95ZM3082.3,2677.56L3082.29,2677.58L3082.3,2677.57L3082.3,2677.56ZM3083.79,2675.22L3083.76,2675.26L3083.77,2675.26L3083.79,2675.22ZM3084.06,2674.83L3084.01,2674.9L3084.03,2674.88L3084.06,2674.83ZM3084.33,2674.45L3084.27,2674.53L3084.29,2674.51L3084.33,2674.45ZM3084.61,2674.08L3084.54,2674.17L3084.56,2674.14L3084.61,2674.08ZM3084.88,2673.71L3084.8,2673.81L3084.83,2673.78L3084.88,2673.71ZM3085.15,2673.35L3085.08,2673.46L3085.11,2673.41L3085.15,2673.35ZM3085.43,2673L3085.35,2673.1L3085.39,2673.05L3085.43,2673ZM3085.72,2672.65L3085.63,2672.75L3085.67,2672.7L3085.72,2672.65ZM3086,2672.3L3085.92,2672.4L3085.96,2672.35L3086,2672.3ZM3086.29,2671.96L3086.21,2672.05L3086.26,2671.99L3086.29,2671.96ZM3086.58,2671.62L3086.5,2671.71L3086.55,2671.65L3086.58,2671.62ZM3086.88,2671.28L3086.8,2671.37L3086.85,2671.3L3086.88,2671.28ZM3087.17,2670.95L3087.11,2671.02L3087.16,2670.97L3087.17,2670.95ZM3087.48,2670.62L3087.42,2670.67L3087.47,2670.63L3087.48,2670.62ZM3087.78,2670.29L3087.76,2670.32L3087.78,2670.3L3087.78,2670.29ZM3089.74,2668.35L3089.72,2668.38L3089.72,2668.37L3089.74,2668.35ZM3090.1,2668.03L3090.05,2668.07L3090.06,2668.06L3090.1,2668.03ZM3090.44,2667.72L3090.39,2667.77L3090.4,2667.76L3090.44,2667.72ZM3090.79,2667.42L3090.72,2667.48L3090.74,2667.46L3090.79,2667.42ZM3091.13,2667.12L3091.07,2667.18L3091.09,2667.16L3091.13,2667.12ZM3091.48,2666.84L3091.41,2666.89L3091.44,2666.87L3091.48,2666.84ZM3091.83,2666.55L3091.76,2666.61L3091.79,2666.58L3091.83,2666.55ZM3092.18,2666.27L3092.12,2666.32L3092.15,2666.29L3092.18,2666.27ZM3092.54,2665.99L3092.47,2666.04L3092.51,2666.01L3092.54,2665.99ZM3092.89,2665.72L3092.84,2665.76L3092.87,2665.74L3092.89,2665.72ZM3093.25,2665.45L3093.21,2665.48L3093.24,2665.46L3093.25,2665.45ZM3093.61,2665.19L3093.59,2665.21L3093.61,2665.19L3093.61,2665.19Z" style="fill:url(#_Linear1);"/>
                    </g>
                    <g transform="matrix(1.55874,0,0,0.583299,-1862.36,-461.687)">
                        <path d="M1270.06,1144.6C1270.99,1144.6 1271.75,1145.36 1271.75,1146.29L1271.75,1151.32C1271.75,1152.26 1270.99,1153.02 1270.06,1153.02L1264.72,1153.02C1263.79,1153.02 1263.03,1152.26 1263.03,1151.32L1263.03,1146.29C1263.03,1145.36 1263.79,1144.6 1264.72,1144.6L1270.06,1144.6ZM1284.21,1134.33C1282.98,1134.34 1281.84,1135.35 1281.7,1136.59C1281.55,1137.98 1282.72,1139.39 1284.21,1139.4C1285.41,1139.41 1286.55,1138.45 1286.73,1137.25C1286.9,1136.18 1286.29,1135.03 1285.3,1134.56C1284.96,1134.4 1284.59,1134.32 1284.21,1134.33ZM1250.54,1134.33C1249.31,1134.34 1248.17,1135.34 1248.03,1136.57C1247.87,1137.96 1249.04,1139.39 1250.54,1139.4C1251.74,1139.41 1252.89,1138.45 1253.07,1137.23C1253.27,1135.86 1252.17,1134.42 1250.72,1134.33C1250.66,1134.33 1250.6,1134.33 1250.54,1134.33ZM1299.86,1119.12C1298.64,1119.13 1297.5,1120.13 1297.36,1121.36C1297.2,1122.76 1298.37,1124.18 1299.86,1124.19C1301.06,1124.2 1302.19,1123.25 1302.39,1122.06C1302.56,1120.98 1301.96,1119.83 1300.96,1119.36C1300.62,1119.2 1300.25,1119.12 1299.86,1119.12ZM1234.88,1119.12C1233.66,1119.13 1232.52,1120.13 1232.38,1121.36C1232.22,1122.76 1233.38,1124.18 1234.88,1124.19C1236.08,1124.2 1237.22,1123.25 1237.41,1122.04C1237.57,1120.97 1236.97,1119.83 1235.99,1119.36C1235.64,1119.2 1235.27,1119.12 1234.88,1119.12ZM1267.37,1119.12C1266.14,1119.13 1265,1120.14 1264.87,1121.38C1264.72,1122.77 1265.88,1124.18 1267.37,1124.19C1268.57,1124.2 1269.71,1123.25 1269.9,1122.04C1270.06,1120.97 1269.46,1119.83 1268.48,1119.36C1268.13,1119.2 1267.76,1119.12 1267.37,1119.12Z" style="fill:rgb(23,229,216);"/>
                    </g>
                </g>
            </g>
        </g>
    </g>
    <defs>
        <linearGradient id="_Linear1" x1="0" y1="0" x2="1" y2="0" gradientUnits="userSpaceOnUse" gradientTransform="matrix(4.55935e-14,744.598,-744.598,4.55935e-14,2330.93,2458.48)"><stop offset="0" style="stop-color:rgb(97,65,148);stop-opacity:1"/><stop offset="1" style="stop-color:rgb(46,18,127);stop-opacity:1"/></linearGradient>
    </defs>
</svg>
