<?xml version="1.0" encoding="UTF-8" standalone="no"?>
<!DOCTYPE svg PUBLIC "-//W3C//DTD SVG 1.1//EN" "http://www.w3.org/Graphics/SVG/1.1/DTD/svg11.dtd">
<svg width="100%" height="100%" viewBox="0 0 172 125" version="1.1" xmlns="http://www.w3.org/2000/svg" xmlns:xlink="http://www.w3.org/1999/xlink" xml:space="preserve" xmlns:serif="http://www.serif.com/" style="fill-rule:evenodd;clip-rule:evenodd;stroke-linejoin:round;stroke-miterlimit:1.41421;">
    <g id="Logo" transform="matrix(0.848649,0,0,0.503649,-116.755,-76.1952)">
        <g id="Baseline" transform="matrix(1.75348,0,0,2.95462,-1986.26,-3134.76)">
            <path d="M1320.11,1188.92L1320.11,1193.32C1320.11,1194.21 1319.88,1194.88 1319.43,1195.33C1318.97,1195.77 1318.39,1195.99 1317.68,1195.99C1316.97,1195.99 1316.33,1195.76 1315.75,1195.28L1316.22,1194.48C1316.69,1194.85 1317.15,1195.04 1317.62,1195.04C1318.09,1195.04 1318.47,1194.91 1318.74,1194.65C1319.02,1194.39 1319.16,1193.97 1319.16,1193.4L1319.16,1192.76C1319.01,1193.06 1318.8,1193.3 1318.52,1193.47C1318.25,1193.65 1317.94,1193.74 1317.59,1193.74C1316.96,1193.74 1316.45,1193.5 1316.05,1193.04C1315.64,1192.57 1315.44,1191.99 1315.44,1191.29C1315.44,1190.6 1315.64,1190.01 1316.05,1189.55C1316.45,1189.08 1316.96,1188.85 1317.59,1188.85C1318.21,1188.85 1318.72,1189.12 1319.11,1189.67L1319.11,1188.92L1320.11,1188.92ZM1291.31,1195.8L1290.32,1195.8L1290.32,1188.92L1291.31,1188.92L1291.31,1189.8C1291.7,1189.16 1292.21,1188.85 1292.85,1188.85C1293.48,1188.85 1294.02,1189.08 1294.47,1189.55C1294.92,1190.01 1295.15,1190.64 1295.15,1191.41C1295.15,1192.19 1294.92,1192.82 1294.48,1193.31C1294.03,1193.8 1293.51,1194.04 1292.91,1194.04C1292.32,1194.04 1291.78,1193.76 1291.31,1193.21L1291.31,1195.8ZM1274.31,1193.96L1273.31,1193.96L1273.31,1193.05C1273.15,1193.36 1272.93,1193.6 1272.65,1193.78C1272.37,1193.95 1272.06,1194.04 1271.74,1194.04C1271.2,1194.04 1270.77,1193.87 1270.44,1193.52C1270.12,1193.17 1269.95,1192.67 1269.95,1192.01L1269.95,1188.92L1270.95,1188.92L1270.95,1191.69C1270.95,1192.62 1271.31,1193.08 1272.03,1193.08C1272.37,1193.08 1272.67,1192.96 1272.93,1192.72C1273.18,1192.48 1273.31,1192.12 1273.31,1191.65L1273.31,1188.92L1274.31,1188.92L1274.31,1193.96ZM1236.36,1193.96L1235.36,1193.96L1235.36,1193.21C1235,1193.76 1234.46,1194.04 1233.75,1194.04C1233.16,1194.04 1232.63,1193.8 1232.19,1193.32C1231.75,1192.84 1231.52,1192.21 1231.52,1191.42C1231.52,1190.64 1231.75,1190.01 1232.21,1189.55C1232.66,1189.08 1233.21,1188.85 1233.84,1188.85C1234.47,1188.85 1234.98,1189.13 1235.36,1189.7L1235.36,1186.93L1236.36,1186.93L1236.36,1193.96ZM1322.6,1191.91C1322.62,1192.27 1322.78,1192.57 1323.07,1192.79C1323.36,1193.02 1323.69,1193.13 1324.06,1193.13C1324.65,1193.13 1325.1,1192.93 1325.41,1192.53L1325.98,1193.2C1325.47,1193.76 1324.81,1194.04 1323.99,1194.04C1323.33,1194.04 1322.76,1193.81 1322.3,1193.33C1321.83,1192.86 1321.6,1192.23 1321.6,1191.44C1321.6,1190.64 1321.84,1190.01 1322.31,1189.55C1322.78,1189.08 1323.34,1188.85 1323.99,1188.85C1324.63,1188.85 1325.17,1189.05 1325.62,1189.47C1326.08,1189.88 1326.3,1190.45 1326.3,1191.18L1326.3,1191.91L1322.6,1191.91ZM1251.28,1191.91C1251.3,1192.27 1251.46,1192.57 1251.75,1192.79C1252.04,1193.02 1252.37,1193.13 1252.74,1193.13C1253.33,1193.13 1253.78,1192.93 1254.09,1192.53L1254.66,1193.2C1254.15,1193.76 1253.49,1194.04 1252.67,1194.04C1252.01,1194.04 1251.44,1193.81 1250.98,1193.33C1250.51,1192.86 1250.28,1192.23 1250.28,1191.44C1250.28,1190.64 1250.52,1190.01 1250.99,1189.55C1251.46,1189.08 1252.02,1188.85 1252.66,1188.85C1253.31,1188.85 1253.86,1189.05 1254.31,1189.47C1254.76,1189.88 1254.98,1190.45 1254.98,1191.18L1254.98,1191.91L1251.28,1191.91ZM1263.84,1194.04C1263.18,1194.04 1262.62,1193.8 1262.14,1193.33C1261.67,1192.85 1261.43,1192.22 1261.43,1191.45C1261.43,1190.68 1261.68,1190.05 1262.17,1189.57C1262.67,1189.09 1263.27,1188.85 1263.98,1188.85C1264.69,1188.85 1265.29,1189.11 1265.78,1189.63L1265.2,1190.4C1264.79,1190.02 1264.38,1189.83 1263.96,1189.83C1263.55,1189.83 1263.19,1189.98 1262.88,1190.27C1262.58,1190.57 1262.43,1190.94 1262.43,1191.41C1262.43,1191.87 1262.58,1192.27 1262.88,1192.59C1263.18,1192.91 1263.55,1193.07 1263.99,1193.07C1264.43,1193.07 1264.85,1192.86 1265.24,1192.43L1265.83,1193.11C1265.25,1193.73 1264.59,1194.04 1263.84,1194.04ZM1279.47,1192.46C1279.47,1192.94 1279.3,1193.32 1278.98,1193.61C1278.65,1193.9 1278.24,1194.04 1277.73,1194.04C1277.38,1194.04 1277.03,1193.97 1276.65,1193.84C1276.29,1193.71 1275.96,1193.52 1275.67,1193.28L1276.15,1192.46C1276.7,1192.9 1277.24,1193.12 1277.75,1193.12C1277.98,1193.12 1278.15,1193.07 1278.29,1192.95C1278.42,1192.84 1278.48,1192.7 1278.48,1192.53C1278.48,1192.28 1278.17,1192.05 1277.54,1191.85C1277.49,1191.83 1277.46,1191.82 1277.43,1191.81C1276.45,1191.53 1275.96,1191.05 1275.96,1190.39C1275.96,1189.92 1276.13,1189.55 1276.47,1189.27C1276.81,1188.99 1277.25,1188.85 1277.8,1188.85C1278.34,1188.85 1278.86,1189.02 1279.34,1189.36L1278.97,1190.14C1278.58,1189.87 1278.17,1189.74 1277.72,1189.74C1277.48,1189.74 1277.29,1189.78 1277.14,1189.87C1276.99,1189.96 1276.92,1190.1 1276.92,1190.29C1276.92,1190.45 1276.99,1190.57 1277.15,1190.65C1277.26,1190.7 1277.4,1190.76 1277.6,1190.81C1277.79,1190.86 1277.96,1190.91 1278.11,1190.96C1278.26,1191.01 1278.4,1191.07 1278.54,1191.13C1278.68,1191.19 1278.83,1191.28 1278.99,1191.39C1279.31,1191.62 1279.47,1191.98 1279.47,1192.46ZM1307.32,1188.92L1308.57,1188.92L1308.57,1189.77L1307.32,1189.77L1307.32,1192.33C1307.32,1192.57 1307.38,1192.77 1307.5,1192.91C1307.62,1193.05 1307.78,1193.12 1308,1193.12C1308.21,1193.12 1308.41,1193.01 1308.61,1192.79L1309.02,1193.54C1308.67,1193.87 1308.28,1194.04 1307.86,1194.04C1307.43,1194.04 1307.07,1193.88 1306.78,1193.57C1306.48,1193.26 1306.33,1192.84 1306.33,1192.31L1306.33,1189.77L1305.73,1189.77L1305.73,1188.92L1306.33,1188.92L1306.33,1187.34L1307.32,1187.34L1307.32,1188.92ZM1244.95,1188.92L1246.19,1188.92L1246.19,1189.77L1244.95,1189.77L1244.95,1192.33C1244.95,1192.57 1245.01,1192.77 1245.13,1192.91C1245.25,1193.05 1245.41,1193.12 1245.62,1193.12C1245.84,1193.12 1246.04,1193.01 1246.24,1192.79L1246.65,1193.54C1246.3,1193.87 1245.91,1194.04 1245.49,1194.04C1245.06,1194.04 1244.7,1193.88 1244.4,1193.57C1244.1,1193.26 1243.95,1192.84 1243.95,1192.31L1243.95,1189.77L1243.36,1189.77L1243.36,1188.92L1243.95,1188.92L1243.95,1187.34L1244.95,1187.34L1244.95,1188.92ZM1241.98,1193.96L1241.08,1193.96L1241.08,1193.29C1240.68,1193.79 1240.16,1194.04 1239.5,1194.04C1239.01,1194.04 1238.6,1193.89 1238.28,1193.6C1237.96,1193.3 1237.8,1192.9 1237.8,1192.4C1237.8,1191.91 1237.97,1191.54 1238.31,1191.29C1238.65,1191.05 1239.12,1190.92 1239.71,1190.92L1241,1190.92L1241,1190.73C1241,1190.06 1240.65,1189.73 1239.95,1189.73C1239.51,1189.73 1239.05,1189.9 1238.58,1190.24L1238.13,1189.58C1238.71,1189.09 1239.36,1188.85 1240.09,1188.85C1240.65,1188.85 1241.1,1189 1241.45,1189.3C1241.81,1189.6 1241.98,1190.07 1241.98,1190.71L1241.98,1193.96ZM1223.99,1193.96L1223.08,1193.96L1223.08,1193.29C1222.69,1193.79 1222.17,1194.04 1221.51,1194.04C1221.02,1194.04 1220.61,1193.89 1220.29,1193.6C1219.97,1193.3 1219.8,1192.9 1219.8,1192.4C1219.8,1191.91 1219.98,1191.54 1220.32,1191.29C1220.66,1191.05 1221.13,1190.92 1221.71,1190.92L1223,1190.92L1223,1190.73C1223,1190.06 1222.65,1189.73 1221.95,1189.73C1221.52,1189.73 1221.06,1189.9 1220.59,1190.24L1220.14,1189.58C1220.72,1189.09 1221.37,1188.85 1222.1,1188.85C1222.65,1188.85 1223.11,1189 1223.46,1189.3C1223.81,1189.6 1223.99,1190.07 1223.99,1190.71L1223.99,1193.96ZM1313.99,1193.96L1313.09,1193.96L1313.09,1193.29C1312.7,1193.79 1312.17,1194.04 1311.52,1194.04C1311.02,1194.04 1310.62,1193.89 1310.29,1193.6C1309.97,1193.3 1309.81,1192.9 1309.81,1192.4C1309.81,1191.91 1309.98,1191.54 1310.32,1191.29C1310.67,1191.05 1311.13,1190.92 1311.72,1190.92L1313.01,1190.92L1313.01,1190.73C1313.01,1190.06 1312.66,1189.73 1311.96,1189.73C1311.52,1189.73 1311.07,1189.9 1310.59,1190.24L1310.15,1189.58C1310.72,1189.09 1311.37,1188.85 1312.1,1188.85C1312.66,1188.85 1313.11,1189 1313.46,1189.3C1313.82,1189.6 1313.99,1190.07 1313.99,1190.71L1313.99,1193.96ZM1300.47,1193.96L1299.57,1193.96L1299.57,1193.29C1299.17,1193.79 1298.65,1194.04 1297.99,1194.04C1297.5,1194.04 1297.09,1193.89 1296.77,1193.6C1296.45,1193.3 1296.29,1192.9 1296.29,1192.4C1296.29,1191.91 1296.46,1191.54 1296.8,1191.29C1297.14,1191.05 1297.61,1190.92 1298.2,1190.92L1299.49,1190.92L1299.49,1190.73C1299.49,1190.06 1299.13,1189.73 1298.44,1189.73C1298,1189.73 1297.54,1189.9 1297.07,1190.24L1296.62,1189.58C1297.2,1189.09 1297.85,1188.85 1298.58,1188.85C1299.13,1188.85 1299.59,1189 1299.94,1189.3C1300.3,1189.6 1300.47,1190.07 1300.47,1190.71L1300.47,1193.96ZM1212.26,1193.96L1211.21,1193.96L1211.21,1187.34L1212.85,1187.34L1214.72,1191.5L1216.6,1187.34L1218.22,1187.34L1218.22,1193.96L1217.17,1193.96L1217.17,1188.79L1215.01,1193.39L1214.42,1193.39L1212.26,1188.79L1212.26,1193.96ZM1268.21,1193.96L1267.21,1193.96L1267.21,1186.93L1268.21,1186.93L1268.21,1193.96ZM1226.73,1193.96L1225.73,1193.96L1225.73,1188.92L1226.73,1188.92L1226.73,1189.84C1226.89,1189.53 1227.11,1189.29 1227.39,1189.11C1227.67,1188.93 1227.97,1188.85 1228.3,1188.85C1228.83,1188.85 1229.26,1189.02 1229.59,1189.37C1229.92,1189.71 1230.08,1190.22 1230.08,1190.87L1230.08,1193.96L1229.09,1193.96L1229.09,1191.2C1229.09,1190.27 1228.73,1189.8 1228.01,1189.8C1227.66,1189.8 1227.36,1189.92 1227.11,1190.17C1226.85,1190.41 1226.73,1190.77 1226.73,1191.23L1226.73,1193.96ZM1281.95,1193.96L1280.95,1193.96L1280.95,1188.92L1281.95,1188.92L1281.95,1193.96ZM1304.75,1189.92L1304.69,1189.92C1304.2,1189.92 1303.83,1190.09 1303.58,1190.43C1303.33,1190.77 1303.21,1191.23 1303.21,1191.8L1303.21,1193.96L1302.21,1193.96L1302.21,1188.92L1303.21,1188.92L1303.21,1189.93C1303.37,1189.62 1303.59,1189.36 1303.86,1189.16C1304.14,1188.96 1304.43,1188.85 1304.74,1188.85L1304.75,1189.92ZM1284.97,1193.96L1283.97,1193.96L1283.97,1189.77L1283.38,1189.77L1283.38,1188.92L1283.97,1188.92L1283.97,1188.53C1283.97,1188 1284.12,1187.58 1284.42,1187.27C1284.72,1186.95 1285.08,1186.8 1285.5,1186.8C1285.93,1186.8 1286.31,1186.96 1286.66,1187.3L1286.26,1188.05C1286.06,1187.83 1285.86,1187.72 1285.64,1187.72C1285.43,1187.72 1285.26,1187.79 1285.14,1187.93C1285.03,1188.07 1284.97,1188.26 1284.97,1188.5L1284.97,1188.92L1286.21,1188.92L1286.21,1189.77L1284.97,1189.77L1284.97,1193.96ZM1257.04,1193.96L1255.88,1193.96L1257.56,1191.39L1255.97,1188.92L1257.18,1188.92L1258.2,1190.58L1259.25,1188.92L1260.43,1188.92L1258.77,1191.39L1260.5,1193.96L1259.27,1193.96L1258.14,1192.29L1257.04,1193.96ZM1222.99,1191.66L1221.88,1191.66C1221.16,1191.66 1220.8,1191.9 1220.8,1192.38C1220.8,1192.63 1220.89,1192.82 1221.07,1192.95C1221.24,1193.08 1221.49,1193.14 1221.81,1193.14C1222.12,1193.14 1222.4,1193.05 1222.64,1192.86C1222.88,1192.67 1222.99,1192.41 1222.99,1192.09L1222.99,1191.66ZM1299.48,1191.66L1298.36,1191.66C1297.64,1191.66 1297.28,1191.9 1297.28,1192.38C1297.28,1192.63 1297.37,1192.82 1297.55,1192.95C1297.73,1193.08 1297.97,1193.14 1298.29,1193.14C1298.61,1193.14 1298.88,1193.05 1299.12,1192.86C1299.36,1192.67 1299.48,1192.41 1299.48,1192.09L1299.48,1191.66ZM1313,1191.66L1311.88,1191.66C1311.16,1191.66 1310.8,1191.9 1310.8,1192.38C1310.8,1192.63 1310.89,1192.82 1311.07,1192.95C1311.25,1193.08 1311.5,1193.14 1311.81,1193.14C1312.13,1193.14 1312.41,1193.05 1312.64,1192.86C1312.88,1192.67 1313,1192.41 1313,1192.09L1313,1191.66ZM1240.99,1191.66L1239.87,1191.66C1239.15,1191.66 1238.79,1191.9 1238.79,1192.38C1238.79,1192.63 1238.88,1192.82 1239.06,1192.95C1239.24,1193.08 1239.48,1193.14 1239.8,1193.14C1240.12,1193.14 1240.39,1193.05 1240.63,1192.86C1240.87,1192.67 1240.99,1192.41 1240.99,1192.09L1240.99,1191.66ZM1232.52,1191.47C1232.52,1191.95 1232.66,1192.34 1232.95,1192.65C1233.24,1192.95 1233.59,1193.1 1233.98,1193.1C1234.37,1193.1 1234.7,1192.95 1234.97,1192.64C1235.24,1192.34 1235.38,1191.94 1235.38,1191.46C1235.38,1190.98 1235.24,1190.58 1234.97,1190.26C1234.7,1189.93 1234.36,1189.77 1233.97,1189.77C1233.57,1189.77 1233.23,1189.93 1232.94,1190.26C1232.66,1190.58 1232.52,1190.99 1232.52,1191.47ZM1291.29,1191.45C1291.29,1191.93 1291.43,1192.33 1291.7,1192.63C1291.97,1192.94 1292.31,1193.09 1292.7,1193.09C1293.09,1193.09 1293.43,1192.94 1293.72,1192.64C1294.01,1192.33 1294.15,1191.94 1294.15,1191.46C1294.15,1190.97 1294.01,1190.57 1293.73,1190.25C1293.44,1189.93 1293.1,1189.77 1292.71,1189.77C1292.31,1189.77 1291.97,1189.93 1291.7,1190.25C1291.43,1190.57 1291.29,1190.97 1291.29,1191.45ZM1316.42,1191.25C1316.42,1191.66 1316.54,1192.02 1316.78,1192.32C1317.02,1192.62 1317.34,1192.77 1317.75,1192.77C1318.15,1192.77 1318.48,1192.62 1318.73,1192.33C1318.99,1192.04 1319.11,1191.68 1319.11,1191.25C1319.11,1190.82 1318.98,1190.45 1318.73,1190.15C1318.48,1189.85 1318.15,1189.7 1317.74,1189.7C1317.34,1189.7 1317.02,1189.85 1316.78,1190.16C1316.54,1190.47 1316.42,1190.84 1316.42,1191.25ZM1251.28,1191.07L1253.99,1191.07C1253.99,1190.65 1253.86,1190.32 1253.61,1190.1C1253.36,1189.87 1253.06,1189.76 1252.69,1189.76C1252.33,1189.76 1252,1189.87 1251.71,1190.11C1251.42,1190.35 1251.28,1190.67 1251.28,1191.07ZM1322.6,1191.07L1325.3,1191.07C1325.3,1190.65 1325.18,1190.32 1324.93,1190.1C1324.68,1189.87 1324.38,1189.76 1324.01,1189.76C1323.65,1189.76 1323.32,1189.87 1323.03,1190.11C1322.74,1190.35 1322.6,1190.67 1322.6,1191.07ZM1324.52,1188.26L1323.62,1188.26L1324.56,1186.88L1325.61,1187.35L1324.52,1188.26ZM1281.01,1187.92C1280.89,1187.78 1280.83,1187.62 1280.83,1187.44C1280.83,1187.26 1280.89,1187.1 1281.01,1186.97C1281.14,1186.84 1281.29,1186.77 1281.46,1186.77C1281.63,1186.77 1281.78,1186.84 1281.9,1186.97C1282.03,1187.1 1282.09,1187.26 1282.09,1187.44C1282.09,1187.62 1282.03,1187.78 1281.9,1187.92C1281.78,1188.05 1281.63,1188.12 1281.46,1188.12C1281.29,1188.12 1281.14,1188.05 1281.01,1187.92Z" style="fill:white;"/>
        </g>
        <g id="Mandexpa" transform="matrix(0.228375,0,0,0.384811,-138.504,-129.521)">
            <path d="M1621.54,1275.48L1588.88,1275.48C1587.48,1275.39 1586.36,1274.3 1586.27,1272.86L1586.27,1169.55C1586.36,1168.14 1587.44,1167.02 1588.88,1166.94C1600.28,1166.94 1611.68,1166.91 1623.09,1166.94C1641.15,1167.05 1660.37,1172.58 1671.2,1188.26C1677.63,1197.56 1680.17,1209.21 1680.17,1220.69C1680.17,1239.36 1672.84,1258.63 1655.83,1268.05C1645.4,1273.83 1633.18,1275.45 1621.54,1275.48ZM1482.19,1275.48L1465.58,1275.48C1464.17,1275.39 1463.05,1274.3 1462.96,1272.86L1462.96,1169.55C1463.05,1168.14 1464.14,1167.02 1465.58,1166.94L1482.19,1166.94C1482.29,1166.94 1482.39,1166.95 1482.49,1166.95C1483.16,1167.07 1483.57,1167.13 1484.28,1167.99L1536.72,1238.79L1536.72,1169.55C1536.72,1169.55 1537.24,1167.06 1539.33,1166.94L1555.94,1166.94C1557.35,1167.02 1558.47,1168.11 1558.56,1169.55L1558.56,1272.86C1558.47,1274.27 1557.38,1275.39 1555.94,1275.48L1537.93,1275.48C1536.64,1275.4 1536.59,1275.33 1535.83,1274.42L1484.8,1205.41L1484.8,1272.86C1484.8,1272.86 1484.4,1275.34 1482.19,1275.48ZM1811.42,1275.48L1790.73,1275.48C1788.82,1275.36 1787.52,1273.27 1788.53,1271.46L1821.42,1219.79L1790.91,1170.93C1790.91,1170.93 1790.1,1167.13 1793.12,1166.94L1813.67,1166.94C1813.77,1166.94 1813.87,1166.95 1813.97,1166.95C1815.18,1167.16 1815.22,1167.22 1815.88,1168.16L1835.98,1200.09L1856.09,1168.16C1856.09,1168.16 1856.79,1167.02 1858.3,1166.94L1878.85,1166.94C1880.74,1167.06 1882.02,1169.16 1881.06,1170.93L1850.54,1219.79L1883.44,1271.46C1883.44,1271.46 1884.27,1275.29 1881.24,1275.48L1860.55,1275.48C1859.19,1275.4 1859.07,1275.29 1858.33,1274.24L1835.98,1238.37L1813.64,1274.24C1813.64,1274.24 1812.94,1275.39 1811.42,1275.48ZM1775.39,1275.48L1704.59,1275.48C1703.18,1275.39 1702.06,1274.3 1701.97,1272.86L1701.97,1169.55C1702.06,1168.14 1703.15,1167.02 1704.59,1166.94L1773.7,1166.94C1773.8,1166.94 1773.91,1166.95 1774.01,1166.95C1775.83,1167.29 1776.22,1168.13 1776.31,1169.55L1776.31,1185.95C1776.23,1187.36 1775.14,1188.48 1773.7,1188.57L1723.81,1188.57L1723.81,1210.69L1768.35,1210.69C1769.76,1210.77 1770.87,1211.86 1770.96,1213.3L1770.96,1228.82C1770.88,1230.22 1769.79,1231.34 1768.35,1231.43L1723.81,1231.43L1723.81,1253.85L1775.39,1253.85C1776.79,1253.93 1777.91,1255.02 1778,1256.46L1778,1272.86C1777.91,1274.27 1776.83,1275.39 1775.39,1275.48ZM1919.24,1275.48L1902.63,1275.48C1901.23,1275.39 1900.11,1274.3 1900.02,1272.86L1900.02,1169.55C1900.11,1168.14 1901.2,1167.02 1902.63,1166.94C1914.01,1166.94 1925.39,1166.92 1936.77,1166.94C1952.68,1167.01 1969.75,1170.47 1977.44,1185.09C1981.95,1193.65 1982.62,1203.98 1981.61,1213.06C1980.54,1222.61 1976.47,1232.12 1967.88,1237.82C1958.85,1243.81 1947.59,1245.12 1937.04,1245.17L1936.7,1245.17L1921.86,1245.17L1921.86,1272.86C1921.77,1274.27 1920.68,1275.39 1919.24,1275.48ZM1228.12,1275.48L1211.51,1275.48C1210.1,1275.39 1208.98,1274.3 1208.89,1272.86L1208.89,1169.55C1208.98,1168.14 1210.07,1167.02 1211.51,1166.94L1237.4,1166.94C1237.52,1166.94 1237.62,1166.95 1237.74,1166.96C1239.11,1167.22 1239.17,1167.33 1239.78,1168.46L1267.11,1228.16L1294.43,1168.46C1294.43,1168.46 1295.08,1167.05 1296.81,1166.94L1322.57,1166.94C1323.97,1167.02 1325.09,1168.11 1325.18,1169.55L1325.18,1272.86C1325.09,1274.27 1324,1275.39 1322.57,1275.48L1305.95,1275.48C1304.55,1275.39 1303.43,1274.3 1303.34,1272.86L1303.34,1203.66L1273.96,1264.98C1273.96,1264.98 1273.31,1266.35 1271.61,1266.46L1262.32,1266.46C1260.81,1266.36 1260.65,1266.21 1259.96,1264.97L1230.73,1203.7L1230.73,1272.86C1230.73,1272.86 1230.33,1275.34 1228.12,1275.48ZM2003.28,1275.48L1985.54,1275.48C1983.79,1275.37 1982.54,1273.57 1983.13,1271.85L2026.49,1168.54C2027.17,1167.15 2027.44,1167.02 2028.89,1166.94L2046.63,1166.94C2046.73,1166.94 2046.84,1166.95 2046.94,1166.95C2048.34,1167.2 2048.45,1167.34 2049.04,1168.54L2092.39,1271.85C2092.97,1273.51 2091.8,1275.36 2089.99,1275.48L2072.25,1275.48C2070.71,1275.38 2070.48,1275.18 2069.84,1273.87L2060.66,1251.97L2014.87,1251.97L2005.68,1273.87C2005.01,1275.26 2004.74,1275.39 2003.28,1275.48ZM1359.58,1275.48L1341.85,1275.48C1340.08,1275.37 1338.83,1273.6 1339.44,1271.85L1382.79,1168.54C1383.48,1167.15 1383.75,1167.02 1385.2,1166.94L1402.94,1166.94C1403.04,1166.94 1403.14,1166.95 1403.24,1166.95C1404.64,1167.2 1404.76,1167.34 1405.35,1168.54L1448.7,1271.85C1449.28,1273.51 1448.2,1275.36 1446.29,1275.48L1428.56,1275.48C1427.01,1275.38 1426.79,1275.18 1426.15,1273.87L1416.97,1251.97L1371.17,1251.97L1361.99,1273.87C1361.31,1275.26 1361.04,1275.39 1359.58,1275.48ZM1608.1,1188.27L1608.1,1253.85C1624.92,1253.85 1643.69,1256.74 1653.57,1240.62C1658.39,1232.76 1658.87,1222.74 1657.79,1214.38C1656.79,1206.62 1653.46,1198.93 1646.58,1194.25C1635.87,1186.97 1621.99,1188.27 1608.1,1188.27ZM2023.82,1230.64L2051.71,1230.64L2037.76,1197.43C2033.11,1208.5 2028.47,1219.57 2023.82,1230.64ZM1380.12,1230.64L1408.02,1230.64L1394.07,1197.43C1389.42,1208.5 1384.77,1219.57 1380.12,1230.64ZM1921.86,1187.98L1921.86,1224.14L1938.52,1224.14C1945.3,1224.12 1952.74,1223.69 1956.58,1217.9C1959.86,1212.97 1960.19,1206.34 1959.45,1201.07C1958.27,1192.77 1949.37,1188.08 1936.54,1187.98C1931.65,1187.96 1926.75,1187.98 1921.86,1187.98Z" style="fill:white;"/>
        </g>
        <g id="Visuel" transform="matrix(1.02179,0,0,4.6009,122.842,-692.709)">
            <g id="_-Courbes-" serif:id="(Courbes)" transform="matrix(0.102608,0,0,0.0383973,-155.888,89.0422)">
                <path d="M2659.54,3172.7L2584.85,3172.7C2572.08,3172.7 2561.71,3162.33 2561.71,3149.56L2561.71,3067.99C2561.71,3055.22 2572.08,3044.85 2584.85,3044.85L2659.54,3044.85C2672.31,3044.85 2682.68,3055.22 2682.68,3067.99L2682.68,3149.56C2682.68,3162.33 2672.31,3172.7 2659.54,3172.7ZM3092.62,3172.7L2901.08,3172.7C2888.31,3172.7 2877.95,3162.33 2877.95,3149.56L2877.95,2981.08C2888.13,2980.89 2898.16,2977.83 2906.73,2972.53L3103.32,3170.08C3100.12,3171.75 3096.48,3172.7 3092.62,3172.7ZM2343.31,3172.7L2151.76,3172.7C2148.18,3172.7 2144.79,3171.88 2141.76,3170.43L2337.51,2972.86C2340.12,2974.55 2342.87,2976.01 2345.74,2977.2C2352.45,2979.99 2359.48,2981.23 2366.44,2981.12L2366.44,3149.56C2366.44,3162.33 2356.08,3172.7 2343.31,3172.7ZM2128.63,2935.05L2313.01,2935.05C2314.48,2945.29 2319.12,2954.95 2325.88,2962.73L2130.85,3159.46C2129.43,3156.46 2128.63,3153.1 2128.63,3149.56L2128.63,2935.05L2128.63,2935.05ZM2931.31,2935.05L3115.76,2935.05L3115.76,3149.56C3115.76,3152.81 3115.09,3155.91 3113.88,3158.71L2918.59,2962.66C2921.29,2959.66 2923.64,2956.36 2925.56,2952.78C2928.51,2947.26 2930.43,2941.23 2931.31,2935.05ZM2128.63,2919.63L2128.63,2919.63L2128.63,2750.04C2140.62,2749.83 2152.4,2745.62 2161.82,2738.47L2322.84,2895.57C2317.74,2902.66 2314.39,2910.99 2313.09,2919.63L2128.63,2919.63ZM3115.76,2919.63L2931.32,2919.63C2930.64,2914.74 2929.3,2909.94 2927.29,2905.42C2925.75,2901.97 2923.83,2898.71 2921.58,2895.7L3082.87,2739C3086.59,2741.91 3090.68,2744.34 3095.05,2746.16C3101.66,2748.91 3108.72,2750.19 3115.76,2750.14L3115.76,2919.63ZM3062.32,2704.01C3063.56,2712.64 3067.05,2720.86 3072.17,2727.89L2910.72,2884.75C2901.44,2877.69 2889.98,2873.47 2878.29,2873.36C2877.95,2873.36 2877.6,2873.36 2877.25,2873.36C2863.8,2873.57 2850.67,2878.88 2840.94,2888.05C2837.71,2891.09 2834.89,2894.55 2832.54,2898.29L2664.22,2729.97C2666.83,2726.84 2669.06,2723.39 2670.85,2719.7C2673.23,2714.75 2674.8,2709.43 2675.56,2704.01L3062.32,2704.01ZM2568.76,2704.01C2570.12,2713.5 2574.2,2722.49 2580.18,2729.96L2411.87,2898.27C2402.1,2883.35 2384.7,2873.53 2366.79,2873.36C2366.44,2873.36 2366.09,2873.36 2365.75,2873.36C2354,2873.54 2342.71,2877.55 2333.6,2884.52L2172.64,2727.47C2173.97,2725.65 2175.17,2723.74 2176.24,2721.74C2179.2,2716.22 2181.12,2710.19 2181.99,2704.01L2568.76,2704.01ZM3115.09,2734.85L3115.18,2734.85L3115.14,2734.85L3115.09,2734.85ZM3114.75,2734.84L3114.83,2734.84L3114.77,2734.84L3114.75,2734.84ZM3114.36,2734.83L3114.42,2734.83L3114.41,2734.83L3114.36,2734.83ZM3114,2734.81L3114.09,2734.82L3114.04,2734.82L3114,2734.81ZM3113.67,2734.8L3113.71,2734.8L3113.68,2734.8L3113.67,2734.8ZM3113.26,2734.77L3113.34,2734.78L3113.31,2734.77L3113.26,2734.77ZM3112.92,2734.74L3113.01,2734.75L3112.95,2734.75L3112.92,2734.74ZM3112.55,2734.71L3112.6,2734.72L3112.59,2734.72L3112.55,2734.71ZM3112.18,2734.68L3112.27,2734.69L3112.23,2734.68L3112.18,2734.68ZM3111.85,2734.64L3111.91,2734.65L3111.87,2734.64L3111.85,2734.64ZM3111.45,2734.6L3111.53,2734.61L3111.51,2734.6L3111.45,2734.6ZM3111.11,2734.55L3111.2,2734.57L3111.15,2734.56L3111.11,2734.55ZM3110.79,2734.51L3110.79,2734.51L3110.79,2734.51L3110.79,2734.51ZM3110.39,2734.45L3110.47,2734.47L3110.44,2734.46L3110.39,2734.45ZM3110.06,2734.4L3110.14,2734.41L3110.08,2734.41L3110.06,2734.4ZM3109.68,2734.34L3109.74,2734.35L3109.73,2734.35L3109.68,2734.34ZM3109.33,2734.28L3109.43,2734.29L3109.38,2734.28L3109.33,2734.28ZM3109.02,2734.22L3109.05,2734.22L3109.03,2734.22L3109.02,2734.22ZM3108.62,2734.14L3108.71,2734.16L3108.68,2734.15L3108.62,2734.14ZM3108.3,2734.07L3108.38,2734.09L3108.33,2734.08L3108.3,2734.07ZM3107.94,2734L3107.99,2734.01L3107.98,2734L3107.94,2734ZM3107.59,2733.91L3107.67,2733.93L3107.63,2733.92L3107.59,2733.91ZM3107.27,2733.84L3107.33,2733.85L3107.28,2733.84L3107.27,2733.84ZM3106.89,2733.74L3106.96,2733.76L3106.94,2733.76L3106.89,2733.74ZM3106.57,2733.66L3106.65,2733.68L3106.6,2733.67L3106.57,2733.66ZM3106.25,2733.58L3106.26,2733.58L3106.26,2733.58L3106.25,2733.58ZM3105.87,2733.47L3105.95,2733.49L3105.91,2733.48L3105.87,2733.47ZM3105.56,2733.38L3105.62,2733.4L3105.58,2733.38L3105.56,2733.38ZM3105.2,2733.27L3105.25,2733.28L3105.24,2733.28L3105.2,2733.27ZM3104.86,2733.16L3104.95,2733.19L3104.9,2733.18L3104.86,2733.16ZM3104.56,2733.07L3104.58,2733.07L3104.57,2733.07L3104.56,2733.07ZM3104.19,2732.94L3104.26,2732.97L3104.23,2732.96L3104.19,2732.94ZM3103.88,2732.84L3103.94,2732.86L3103.9,2732.84L3103.88,2732.84ZM3103.54,2732.72L3103.57,2732.73L3103.57,2732.73L3103.54,2732.72ZM3103.2,2732.59L3103.27,2732.62L3103.24,2732.61L3103.2,2732.59ZM3102.9,2732.48L3102.94,2732.49L3102.91,2732.48L3102.9,2732.48ZM3102.54,2732.34L3102.6,2732.36L3102.58,2732.36L3102.54,2732.34ZM3102.23,2732.22L3102.3,2732.24L3102.26,2732.23L3102.23,2732.22ZM3101.57,2731.94L3101.64,2731.97L3101.61,2731.96L3101.57,2731.94ZM3101.27,2731.81L3101.32,2731.83L3101.29,2731.82L3101.27,2731.81ZM3100.94,2731.67L3100.98,2731.68L3100.97,2731.68L3100.94,2731.67ZM3100.62,2731.52L3100.68,2731.55L3100.65,2731.53L3100.62,2731.52ZM3099.98,2731.22L3100.03,2731.25L3100.01,2731.24L3099.98,2731.22ZM3099.68,2731.08L3099.73,2731.1L3099.7,2731.09L3099.68,2731.08ZM3099.38,2730.93L3099.39,2730.93L3099.39,2730.93L3099.38,2730.93ZM3099.05,2730.76L3099.1,2730.78L3099.08,2730.77L3099.05,2730.76ZM3098.76,2730.61L3098.77,2730.61L3098.77,2730.61L3098.76,2730.61ZM3098.44,2730.43L3098.47,2730.45L3098.46,2730.45L3098.44,2730.43ZM3098.14,2730.27L3098.18,2730.29L3098.15,2730.28L3098.14,2730.27ZM3097.52,2729.93L3097.56,2729.95L3097.54,2729.94L3097.52,2729.93ZM3097.24,2729.76L3097.25,2729.77L3097.24,2729.76L3097.24,2729.76ZM3096.94,2729.58L3096.94,2729.59L3096.94,2729.59L3096.94,2729.58ZM3096.63,2729.4L3096.66,2729.42L3096.64,2729.41L3096.63,2729.4ZM3096.04,2729.03L3096.06,2729.04L3096.05,2729.04L3096.04,2729.03ZM3095.76,2728.85L3095.77,2728.86L3095.76,2728.85L3095.76,2728.85ZM3095.17,2728.46L3095.19,2728.47L3095.18,2728.47L3095.17,2728.46ZM3083.66,2716.73C3083.66,2716.73 3083.66,2716.73 3083.66,2716.73ZM3079,2706.93L3079,2706.93L3079,2706.93L3079,2706.93ZM3078.62,2705.69L3078.62,2705.69L3078.62,2705.69L3078.62,2705.69ZM3078.51,2705.27L3078.51,2705.27L3078.51,2705.27L3078.51,2705.27ZM3062.41,2688.59L2675.55,2688.59C2674.71,2682.61 2672.9,2676.79 2670.11,2671.43C2668.47,2668.28 2666.5,2665.32 2664.26,2662.58L2861.59,2465.26C2870.61,2456.23 2885.28,2456.23 2894.3,2465.26L3082.7,2653.65C3080.9,2655.03 3079.2,2656.53 3077.59,2658.13C3069.43,2666.3 3064.12,2677.18 3062.41,2688.59ZM3077.99,2688.59C3077.99,2688.59 3077.99,2688.59 3077.99,2688.59ZM2568.85,2688.59L2182.01,2688.59C2181.32,2683.69 2179.98,2678.9 2177.97,2674.38C2174.35,2666.25 2168.58,2659.21 2161.53,2653.81L2350.08,2465.26C2359.11,2456.23 2373.77,2456.23 2382.8,2465.26L2580.1,2662.55C2574.16,2670.04 2570.27,2679.13 2568.85,2688.59ZM3079.88,2682.45L3079.87,2682.47L3079.87,2682.47L3079.88,2682.45ZM3080.06,2682.01L3080.04,2682.06L3080.05,2682.04L3080.06,2682.01ZM3080.24,2681.58L3080.22,2681.65L3080.23,2681.62L3080.24,2681.58ZM3080.43,2681.16L3080.4,2681.24L3080.41,2681.21L3080.43,2681.16ZM3080.62,2680.75L3080.59,2680.83L3080.6,2680.79L3080.62,2680.75ZM3080.82,2680.34L3080.78,2680.42L3080.8,2680.38L3080.82,2680.34ZM3081.02,2679.93L3080.97,2680.02L3081,2679.97L3081.02,2679.93ZM3081.22,2679.53L3081.18,2679.61L3081.2,2679.56L3081.22,2679.53ZM3081.43,2679.13L3081.39,2679.21L3081.41,2679.16L3081.43,2679.13ZM3081.64,2678.73L3081.6,2678.81L3081.63,2678.76L3081.64,2678.73ZM3081.86,2678.34L3081.82,2678.4L3081.85,2678.36L3081.86,2678.34ZM3082.08,2677.95L3082.05,2677.99L3082.07,2677.96L3082.08,2677.95ZM3082.3,2677.56L3082.29,2677.58L3082.3,2677.57L3082.3,2677.56ZM3083.79,2675.22L3083.76,2675.26L3083.77,2675.26L3083.79,2675.22ZM3084.06,2674.83L3084.01,2674.9L3084.03,2674.88L3084.06,2674.83ZM3084.33,2674.45L3084.27,2674.53L3084.29,2674.51L3084.33,2674.45ZM3084.61,2674.08L3084.54,2674.17L3084.56,2674.14L3084.61,2674.08ZM3084.88,2673.71L3084.8,2673.81L3084.83,2673.78L3084.88,2673.71ZM3085.15,2673.35L3085.08,2673.46L3085.11,2673.41L3085.15,2673.35ZM3085.43,2673L3085.35,2673.1L3085.39,2673.05L3085.43,2673ZM3085.72,2672.65L3085.63,2672.75L3085.67,2672.7L3085.72,2672.65ZM3086,2672.3L3085.92,2672.4L3085.96,2672.35L3086,2672.3ZM3086.29,2671.96L3086.21,2672.05L3086.26,2671.99L3086.29,2671.96ZM3086.58,2671.62L3086.5,2671.71L3086.55,2671.65L3086.58,2671.62ZM3086.88,2671.28L3086.8,2671.37L3086.85,2671.3L3086.88,2671.28ZM3087.17,2670.95L3087.11,2671.02L3087.16,2670.97L3087.17,2670.95ZM3087.48,2670.62L3087.42,2670.67L3087.47,2670.63L3087.48,2670.62ZM3087.78,2670.29L3087.76,2670.32L3087.78,2670.3L3087.78,2670.29ZM3089.74,2668.35L3089.72,2668.38L3089.72,2668.37L3089.74,2668.35ZM3090.1,2668.03L3090.05,2668.07L3090.06,2668.06L3090.1,2668.03ZM3090.44,2667.72L3090.39,2667.77L3090.4,2667.76L3090.44,2667.72ZM3090.79,2667.42L3090.72,2667.48L3090.74,2667.46L3090.79,2667.42ZM3091.13,2667.12L3091.07,2667.18L3091.09,2667.16L3091.13,2667.12ZM3091.48,2666.84L3091.41,2666.89L3091.44,2666.87L3091.48,2666.84ZM3091.83,2666.55L3091.76,2666.61L3091.79,2666.58L3091.83,2666.55ZM3092.18,2666.27L3092.12,2666.32L3092.15,2666.29L3092.18,2666.27ZM3092.54,2665.99L3092.47,2666.04L3092.51,2666.01L3092.54,2665.99ZM3092.89,2665.72L3092.84,2665.76L3092.87,2665.74L3092.89,2665.72ZM3093.25,2665.45L3093.21,2665.48L3093.24,2665.46L3093.25,2665.45ZM3093.61,2665.19L3093.59,2665.21L3093.61,2665.19L3093.61,2665.19Z" style="fill:white;"/>
            </g>
            <g transform="matrix(1.55874,0,0,0.583299,-1862.36,-461.687)">
                <path d="M1270.06,1144.6C1270.99,1144.6 1271.75,1145.36 1271.75,1146.29L1271.75,1151.32C1271.75,1152.26 1270.99,1153.02 1270.06,1153.02L1264.72,1153.02C1263.79,1153.02 1263.03,1152.26 1263.03,1151.32L1263.03,1146.29C1263.03,1145.36 1263.79,1144.6 1264.72,1144.6L1270.06,1144.6ZM1284.21,1134.33C1282.98,1134.34 1281.84,1135.35 1281.7,1136.59C1281.55,1137.98 1282.72,1139.39 1284.21,1139.4C1285.41,1139.41 1286.55,1138.45 1286.73,1137.25C1286.9,1136.18 1286.29,1135.03 1285.3,1134.56C1284.96,1134.4 1284.59,1134.32 1284.21,1134.33ZM1250.54,1134.33C1249.31,1134.34 1248.17,1135.34 1248.03,1136.57C1247.87,1137.96 1249.04,1139.39 1250.54,1139.4C1251.74,1139.41 1252.89,1138.45 1253.07,1137.23C1253.27,1135.86 1252.17,1134.42 1250.72,1134.33C1250.66,1134.33 1250.6,1134.33 1250.54,1134.33ZM1299.86,1119.12C1298.64,1119.13 1297.5,1120.13 1297.36,1121.36C1297.2,1122.76 1298.37,1124.18 1299.86,1124.19C1301.06,1124.2 1302.19,1123.25 1302.39,1122.06C1302.56,1120.98 1301.96,1119.83 1300.96,1119.36C1300.62,1119.2 1300.25,1119.12 1299.86,1119.12ZM1234.88,1119.12C1233.66,1119.13 1232.52,1120.13 1232.38,1121.36C1232.22,1122.76 1233.38,1124.18 1234.88,1124.19C1236.08,1124.2 1237.22,1123.25 1237.41,1122.04C1237.57,1120.97 1236.97,1119.83 1235.99,1119.36C1235.64,1119.2 1235.27,1119.12 1234.88,1119.12ZM1267.37,1119.12C1266.14,1119.13 1265,1120.14 1264.87,1121.38C1264.72,1122.77 1265.88,1124.18 1267.37,1124.19C1268.57,1124.2 1269.71,1123.25 1269.9,1122.04C1270.06,1120.97 1269.46,1119.83 1268.48,1119.36C1268.13,1119.2 1267.76,1119.12 1267.37,1119.12Z" style="fill:rgb(23,229,216);"/>
            </g>
        </g>
    </g>
</svg>
